<svg data-v-423bf9ae="" xmlns="http://www.w3.org/2000/svg" viewBox="0 0 360 90" class="iconLeftSlogan"><!----><!----><!----><g data-v-423bf9ae="" id="eab41170-bffb-4638-a97f-f5b230349e6a" fill="white" transform="matrix(4.285714149475098,0,0,4.285714149475098,130.8308868408203,-7.200000286102295)"><path d="M0.91 1.68L0.91 12.60L2.38 12.60L2.38 1.68ZM3.92 3.64C3.92 3.89 4.01 4.11 4.20 4.28C4.39 4.46 4.61 4.55 4.87 4.55C5.13 4.55 5.36 4.46 5.54 4.28C5.73 4.11 5.82 3.89 5.82 3.64C5.82 3.39 5.73 3.17 5.54 3.00C5.36 2.82 5.13 2.73 4.87 2.73C4.61 2.73 4.39 2.82 4.20 3.00C4.01 3.17 3.92 3.39 3.92 3.64ZM4.13 6.16L4.13 12.60L5.61 12.60L5.61 6.16ZM14.36 9.38C14.36 8.32 14.05 7.49 13.43 6.90C12.80 6.31 12.03 6.02 11.10 6.02C10.10 6.02 9.35 6.45 8.83 7.31L8.83 1.68L7.36 1.68L7.36 12.60L8.83 12.60L8.83 11.45C9.35 12.31 10.10 12.74 11.10 12.74C12.03 12.74 12.80 12.45 13.43 11.86C14.05 11.27 14.36 10.44 14.36 9.38ZM12.88 9.38C12.88 10.03 12.69 10.54 12.31 10.88C11.94 11.23 11.44 11.41 10.82 11.41C10.27 11.41 9.80 11.24 9.42 10.91C9.03 10.58 8.83 10.07 8.83 9.38C8.83 8.69 9.03 8.18 9.42 7.85C9.80 7.52 10.27 7.35 10.82 7.35C11.44 7.35 11.94 7.52 12.31 7.87C12.69 8.22 12.88 8.73 12.88 9.38ZM19.25 7.67L19.87 6.47C19.58 6.17 19.18 6.02 18.66 6.02C18.41 6.02 18.16 6.11 17.90 6.29C17.64 6.47 17.42 6.72 17.23 7.03L17.23 6.16L15.69 6.16L15.69 12.60L17.23 12.60L17.23 8.82C17.23 7.84 17.59 7.35 18.31 7.35C18.64 7.35 18.95 7.46 19.25 7.67ZM25.44 8.69L21.88 8.69C21.95 8.26 22.16 7.92 22.52 7.66C22.88 7.41 23.29 7.28 23.76 7.28C24.75 7.28 25.31 7.75 25.44 8.69ZM21.85 9.73L26.98 9.73C27.00 9.61 27.01 9.45 27.01 9.25C27.01 8.25 26.71 7.45 26.12 6.88C25.54 6.31 24.75 6.02 23.76 6.02C22.75 6.02 21.93 6.33 21.30 6.96C20.67 7.59 20.36 8.40 20.36 9.38C20.36 10.38 20.66 11.19 21.26 11.81C21.86 12.43 22.69 12.74 23.76 12.74C25.17 12.74 26.20 12.24 26.85 11.24L25.75 10.56C25.39 11.13 24.73 11.41 23.76 11.41C23.24 11.41 22.82 11.27 22.47 10.98C22.12 10.69 21.92 10.27 21.85 9.73ZM28.98 10.25L27.78 10.78C27.88 11.31 28.18 11.77 28.69 12.16C29.20 12.55 29.78 12.74 30.44 12.74C31.17 12.74 31.78 12.59 32.27 12.28C32.76 11.97 33.00 11.52 33.00 10.92C33.00 10.31 32.81 9.84 32.45 9.51C32.08 9.17 31.60 8.89 31.01 8.68C30.52 8.50 30.17 8.34 29.93 8.20C29.70 8.05 29.58 7.89 29.58 7.71C29.58 7.39 29.86 7.22 30.42 7.22C30.94 7.22 31.36 7.46 31.70 7.92L32.83 7.28C32.62 6.91 32.31 6.60 31.89 6.37C31.46 6.14 30.97 6.02 30.41 6.02C29.79 6.02 29.26 6.17 28.80 6.48C28.34 6.79 28.11 7.20 28.11 7.71C28.11 8.66 28.80 9.35 30.17 9.79C30.60 9.92 30.93 10.07 31.15 10.23C31.37 10.40 31.49 10.62 31.49 10.88C31.49 11.23 31.16 11.41 30.51 11.41C30.15 11.41 29.83 11.31 29.54 11.11C29.25 10.91 29.06 10.62 28.98 10.25ZM41.40 9.38C41.40 8.32 41.09 7.49 40.46 6.90C39.83 6.31 39.06 6.02 38.14 6.02C37.14 6.02 36.38 6.45 35.87 7.31L35.87 6.16L34.40 6.16L34.40 15.68L35.87 15.68L35.87 11.45C36.38 12.31 37.14 12.74 38.14 12.74C39.06 12.74 39.83 12.45 40.46 11.86C41.09 11.27 41.40 10.44 41.40 9.38ZM39.91 9.38C39.91 10.03 39.73 10.54 39.35 10.88C38.97 11.23 38.47 11.41 37.86 11.41C37.31 11.41 36.84 11.24 36.45 10.91C36.06 10.58 35.87 10.07 35.87 9.38C35.87 8.69 36.06 8.18 36.45 7.85C36.84 7.52 37.31 7.35 37.86 7.35C38.47 7.35 38.97 7.52 39.35 7.87C39.73 8.22 39.91 8.73 39.91 9.38ZM42.24 9.38C42.24 10.40 42.58 11.21 43.25 11.82C43.93 12.43 44.77 12.74 45.78 12.74C46.79 12.74 47.63 12.43 48.31 11.82C48.98 11.21 49.32 10.40 49.32 9.38C49.32 8.36 48.98 7.55 48.31 6.94C47.63 6.33 46.79 6.02 45.78 6.02C44.77 6.02 43.93 6.33 43.25 6.94C42.58 7.55 42.24 8.36 42.24 9.38ZM43.72 9.38C43.72 8.75 43.91 8.26 44.30 7.90C44.68 7.53 45.17 7.35 45.78 7.35C46.39 7.35 46.88 7.53 47.26 7.90C47.65 8.26 47.84 8.75 47.84 9.38C47.84 10.01 47.65 10.50 47.26 10.86C46.88 11.23 46.39 11.41 45.78 11.41C45.17 11.41 44.68 11.23 44.30 10.86C43.91 10.50 43.72 10.01 43.72 9.38ZM50.79 3.92L50.79 6.16L49.74 6.16L49.74 7.49L50.79 7.49L50.79 12.60L52.26 12.60L52.26 7.49L53.31 7.49L53.31 6.16L52.26 6.16L52.26 3.92Z"></path></g><!----><g data-v-423bf9ae="" id="aba5ebd7-855f-4faa-9e67-7574ec135360" transform="matrix(1.2747875452041626,0,0,1.2747875452041626,-5.739377021789551,-17.84702491760254)" stroke="none" fill="white"><path d="M95 53.9v-.4c0-.1-.1-.1-.1-.1 0-.1-.1-.1-.1-.2l-.1-.1c-.1 0-.1-.1-.2-.1h-.4c-1.7 0-3.1-.7-4.3-1.7.3-.1.4-.4.5-.6.1-.3.1-.5-.1-.8-.1-.3-.4-.4-.6-.5-.3-.1-.5-.1-.8.1-.2.1-.3.2-.4.4-.7-1-1.4-2.1-2-3.3.3.2.7.2 1 0 .5-.3.7-.9.4-1.4-.3-.5-.9-.7-1.4-.5-.3.2-.5.5-.5.8l-.9-1.8-.9-1.8c.3.1.6.1.9 0 .5-.3.7-.9.4-1.4l-.3-.3c-.3-.3-.8-.3-1.2-.1-.3.2-.5.4-.5.7-1.1-2.1-2.4-4-3.9-5.3.1-.3.1-.5-.1-.8-.3-.5-.9-.7-1.4-.5-.1 0-.1.1-.2.2-.6-.3-1.2-.5-1.8-.6 0-.1 0-.2-.1-.3l-.3-.3c-.1-.1-.2-.2-.4-.2-.3-.1-.5-.1-.8.1l-.3.3c-.1.1-.2.2-.2.4-1.4.1-2.6.7-3.8 1.7-.1 0-.3 0-.4.1-.3.2-.5.4-.5.8-1.4 1.4-2.7 3.4-3.9 5.6-.3-.5-.9-.7-1.4-.4-.5.3-.7.9-.4 1.4.2.4.6.6 1 .6-.3.5-.5 1-.8 1.5-.3-.1-.6-.1-.9 0l-.1.1c-.6-.2-1.3-.4-2-.5 0-.1 0-.2-.1-.2-.3-.5-.9-.7-1.4-.5-.2.1-.3.2-.4.3-.5-.1-1.1-.2-1.7-.3v-.4c0-.1 0-.3-.1-.4-.1-.3-.4-.4-.6-.5-.3-.1-.5-.1-.8.1l-.3.3c-.1.1-.2.2-.2.4v.4c-.8-.1-1.5-.1-2.4-.2.1 0 .2 0 .4-.1.5-.3.7-.9.4-1.4-.3-.5-.9-.7-1.4-.5-.5.3-.7.9-.4 1.4.2.3.5.5.8.5-.8 0-1.6-.1-2.5-.1h-1.2c-.2-.5-.4-1.1-.6-1.6.3.5.9.6 1.4.4.5-.3.7-.9.4-1.4-.3-.5-.9-.7-1.4-.5-.4.2-.6.6-.6 1-.5-1.3-.9-2.5-1.4-3.8.2 0 .3 0 .5-.1l.3-.3c.3-.3.3-.8.1-1.2-.3-.5-.9-.7-1.4-.5-.1 0-.2.1-.2.2C41.1 23.4 36.3 14 30.4 14c-15 0-25 38.2-25.4 39.9v.5c0 .1 0 .1.1.2 0 .1.1.1.1.2l.1.1.1.1c.1 0 .1.1.2.1h.6c0 .1.1.2.1.3l.3-.3h1.8c-.1.1-.1.2-.2.3-.1.3-.1.5.1.8.3.5.9.7 1.4.5.3-.1.4-.4.5-.6.1-.3.1-.5-.1-.8 0-.1-.1-.2-.2-.2 2.4-.1 4.5-.3 6.4-.6 0 .2 0 .4.1.6.3.5.9.7 1.4.5.5-.3.7-.9.4-1.4 1.3-.3 2.5-.6 3.6-.9.2 0 .4 0 .6-.1.1 0 .1-.1.2-.2 2.5-.8 4.6-1.7 6.7-2.7-.2.3-.3.8-.1 1.1.3.5.9.7 1.4.5.5-.3.7-.9.4-1.4-.2-.4-.5-.5-.9-.6 1.2-.6 2.4-1.1 3.6-1.6-.1.2 0 .5.1.7.2.4.6.6 1 .6.1 0 .3 0 .4-.1l.3-.3c.1-.1.1-.1.1-.2.5 1.1 1 2.1 1.5 3.2-.2 0-.4 0-.5.1-.4.2-.6.6-.6 1 0 .1 0 .3.1.4.2.4.6.6 1 .6.1 0 .3 0 .4-.1l.3-.3s0-.1.1-.1c.6 1.1 1.1 2.1 1.7 3.1-.2 0-.4 0-.6.1-.3.1-.4.4-.5.6-.1.3-.1.5.1.8.3.5.9.7 1.4.5.3-.1.4-.4.5-.6 1.3 2 2.7 3.7 4.2 4.8-.3.3-.4.8-.2 1.2.3.5.9.7 1.4.5.2-.1.4-.3.5-.6.5.2 1 .4 1.6.5-.1.3-.1.5.1.8.3.5.9.7 1.4.5.4-.2.6-.7.5-1.1 1.3-.1 2.5-.5 3.6-1.2h.1c4.7 11.9 9.5 20.9 15.4 20.9 15.2 0 25-28.8 25.4-30v-.2c.5-.4.5-.5.5-.5zM74.5 35.3c4.2 0 6.4 4.4 8.7 9.1 1.5 3.1 3.1 6.3 5.4 8.3-8.9-.6-13.6-2.8-18.2-4.9-1.6-.7-3.2-1.5-5-2.1 2.7-5.5 5.6-10.4 9.1-10.4zM50 45.1c5.5 0 9.4.7 12.7 1.7-.2.3-.3.7-.5 1C60 52.5 57.7 57.2 55 60c-1.5-3.8-2.9-7.8-4.3-11.6-.4-1.1-.8-2.2-1.2-3.4.2.1.3.1.5.1zM13.7 34.7c5.5-12.4 11.3-19 16.7-19 5.7 0 11.3 13.6 16.3 27.5-4.3.2-7.5.9-10.3 1.8-3.1-6.3-6.2-11.7-10.9-11.7-5.4 0-7.9 5.1-10.3 10.1-2.1 4.4-4.1 8.6-8 9.3.9-2.9 3.2-10.5 6.5-18zm-2.1 18c2.4-2.1 4-5.4 5.4-8.4 2.2-4.6 4.3-9 8.5-9 3.5 0 6.3 4.9 9 10.4-1.8.7-3.4 1.4-5 2.2-4.5 2-9.2 4.2-17.9 4.8zm26.2-4.9c-.2-.3-.3-.7-.5-1 2.7-.9 6-1.5 10.2-1.6.5 1.3 1 2.7 1.4 4 1.5 4.2 3 8.4 4.5 12.3-1.1.8-2.2 1.2-3.4 1.2-5.1-.1-8.7-7.6-12.2-14.9zm31.8 34.5c-4.8 0-9.4-9.2-13.8-20.2 3.2-3 5.7-8.2 8.2-13.3l.6-1.2c1.8.7 3.4 1.4 5 2.1 5.4 2.5 11.1 5.1 23.1 5.3-2.1 5.4-11 27.3-23.1 27.3z"></path><ellipse cx="72.3" cy="17.1" transform="rotate(62.8 72.325 17.153)" rx="1.1" ry="1.1"></ellipse><ellipse cx="71.2" cy="20.7" transform="rotate(62.8 71.203 20.717)" rx="1.1" ry="1.1"></ellipse><path d="M76.3 19.3c.4-.2.6-.7.5-1.1-.3-.3-.7-.6-1-.8-.2 0-.3 0-.5.1-.5.3-.7.9-.4 1.4.3.4.9.6 1.4.4z"></path><ellipse cx="68.7" cy="16" transform="rotate(62.8 68.776 15.992)" rx="1.1" ry="1.1"></ellipse><path d="M78.5 31.4c0 .1 0 .3.1.4.3.5.9.7 1.4.5.5-.3.7-.9.4-1.4-.1-.3-.4-.4-.6-.5-.3-.1-.5-.1-.8.1-.3.1-.5.5-.5.9zm3-6.2c.3.1.5.1.8-.1l.1-.1c-.2-.4-.4-.7-.7-1-.2-.2-.3-.5-.5-.7-.4.3-.6.9-.4 1.4.2.2.4.4.7.5z"></path><ellipse cx="77.2" cy="26.6" transform="scale(-1) rotate(-27.2 -109.944 318.96)" rx="1.1" ry="1.1"></ellipse><ellipse cx="76" cy="30.2" transform="scale(-1) rotate(62.8 49.427 -124.62)" rx="1.1" ry="1.1"></ellipse><ellipse cx="80.7" cy="27.8" transform="rotate(62.8 80.735 27.768)" rx="1.1" ry="1"></ellipse><ellipse cx="73.6" cy="25.4" transform="scale(-1) rotate(-27.2 -105.137 304.288)" rx="1.1" ry="1.1"></ellipse><ellipse cx="78.3" cy="23" transform="rotate(62.8 78.306 23.042)" rx="1.1" ry="1"></ellipse><path d="M73 29.9c.5-.3.7-.9.4-1.4-.3-.5-.9-.7-1.4-.5-.5.3-.7.9-.4 1.4.2.6.8.8 1.4.5zm6.1-9.4c-.2-.2-.3-.4-.5-.6-.1-.1-.2-.2-.2-.3 0 .1 0 .2.1.3.1.3.3.5.6.6zm-3.9 2.3c.4-.2.6-.6.6-1 0-.1 0-.3-.1-.4-.3-.5-.9-.7-1.4-.5-.5.3-.7.9-.4 1.4.2.6.8.8 1.3.5zm12 11.8l.1-.1c-.3-.6-.6-1.2-.8-1.9-.1 0-.2 0-.2.1-.3.1-.4.4-.5.6-.1.3-.1.5.1.8.1.5.7.7 1.3.5z"></path><ellipse cx="82" cy="36" transform="scale(-1) rotate(62.8 59.075 -134.416)" rx="1.1" ry="1"></ellipse><ellipse cx="85.6" cy="37.2" transform="scale(-1) rotate(-27.2 -153.807 353.707)" rx="1.1" ry="1.1"></ellipse><ellipse cx="83.1" cy="32.5" transform="scale(-1) rotate(-27.2 -134.277 343.67)" rx="1.1" ry="1.1"></ellipse><path d="M83.9 29.9c.3.1.5.1.8-.1.1-.1.2-.1.2-.2-.2-.3-.3-.6-.5-.9-.2-.3-.3-.6-.5-.9-.1 0-.2 0-.3.1-.3.1-.4.4-.5.6-.1.3-.1.5.1.8.2.4.5.5.7.6zm7 14c-.1-.4-.3-.8-.4-1.2 0 .1-.1.3 0 .4 0 .1 0 .3.1.4.1.2.2.3.3.4z"></path><ellipse cx="90.4" cy="46.6" transform="rotate(62.8 90.45 46.669)" rx="1.1" ry="1"></ellipse><ellipse cx="88" cy="41.9" transform="scale(-1) rotate(-27.2 -173.336 363.743)" rx="1.1" ry="1.1"></ellipse><path d="M88.4 39.2c.1.1.2.2.4.2.2.1.3.1.5 0-.1-.3-.2-.6-.4-.9-.1-.3-.3-.6-.4-1-.1.1-.2.1-.2.2-.1.1-.2.2-.2.4-.1.3-.1.5.1.8 0 .1.1.2.2.3zm4.9 13.1c.1 0 .1-.1.2-.2-.1-.5-.3-1.1-.5-1.8-.2 0-.4 0-.7.1-.5.3-.7.9-.4 1.4.3.6.9.8 1.4.5zm-23.7-29c-.3.1-.4.4-.5.6-.1.3-.1.5.1.8.3.5.9.7 1.4.5.3-.1.4-.4.5-.6.1-.3.1-.5-.1-.8-.1-.3-.4-.4-.6-.5-.3-.1-.6-.1-.8 0zm-5.3 3.4c0 .1 0 .3.1.4l.3.3c.2.2.5.3.8.2.1 0 .3 0 .4-.1.3-.1.4-.4.5-.6.1-.3.1-.5-.1-.8-.1-.3-.4-.4-.6-.5-.3-.1-.5-.1-.8.1-.4.2-.6.6-.6 1zm3-6.1c.3.1.5.1.8-.1.5-.3.7-.9.4-1.4-.3-.5-.9-.7-1.4-.5l-.3.3c-.2.2-.3.5-.2.8 0 .1 0 .3.1.4.1.2.3.4.6.5z"></path><ellipse cx="63" cy="21.9" transform="rotate(62.8 62.98 21.957)" rx="1.1" ry="1.1"></ellipse><ellipse cx="61.8" cy="25.5" transform="rotate(62.8 61.86 25.52)" rx="1.1" ry="1.1"></ellipse><ellipse cx="66.5" cy="23.1" transform="rotate(62.8 66.53 23.119)" rx="1.1" ry="1"></ellipse><path d="M59.9 21.7c.5-.3.7-.9.4-1.4-.2-.3-.5-.5-.8-.6-.4.3-.8.6-1.1.9 0 .2 0 .4.1.6.2.6.9.8 1.4.5z"></path><ellipse cx="64.1" cy="18.4" transform="rotate(62.8 64.102 18.393)" rx="1.1" ry="1"></ellipse><ellipse cx="67.8" cy="31.4" transform="rotate(62.8 67.839 31.408)" rx="1.1" ry="1.1"></ellipse><ellipse cx="66.7" cy="35" transform="rotate(62.8 66.717 34.971)" rx="1.1" ry="1.1"></ellipse><ellipse cx="71.4" cy="32.6" transform="scale(-1) rotate(62.8 53.363 -116.963)" rx="1.1" ry="1.1"></ellipse><ellipse cx="64.3" cy="30.2" transform="rotate(62.8 64.289 30.247)" rx="1.1" ry="1.1"></ellipse><ellipse cx="68.9" cy="27.8" transform="rotate(62.8 68.96 27.844)" rx="1.1" ry="1"></ellipse><path d="M65.7 39.6c.1 0 .3 0 .4-.1.5-.3.7-.9.4-1.4l-.3-.3c-.1-.1-.2-.2-.4-.2-.3-.1-.5-.1-.8.1-.3.1-.4.4-.5.6 0 .1-.1.3 0 .4 0 .1 0 .3.1.4.2.3.6.5 1.1.5zm-2.1-4.9c.4-.2.6-.6.6-1 0-.1 0-.3-.1-.4-.3-.5-.9-.7-1.4-.5-.3.1-.4.4-.5.6-.1.3-.1.5.1.8.2.6.8.8 1.3.5zm-3.4-6.6l-.3.3c-.2.2-.3.5-.2.8 0 .1 0 .3.1.4l.3.3c.2.2.5.3.8.2.1 0 .3 0 .4-.1l.3-.3c.2-.2.3-.5.2-.8 0-.1 0-.3-.1-.4l-.3-.3c-.2-.2-.5-.3-.8-.2-.1 0-.2.1-.4.1zM55.1 32l.3.3c.2.2.5.3.8.2.1 0 .3 0 .4-.1.5-.3.7-.9.4-1.4-.3-.5-.9-.7-1.4-.5-.6.3-.8.9-.5 1.5zm3.7-6.7c.5-.3.7-.9.4-1.4-.3-.5-.9-.7-1.4-.5l-.3.3c-.2.2-.3.5-.2.8 0 .1 0 .3.1.4.2.4.9.7 1.4.4z"></path><ellipse cx="53.6" cy="26.7" transform="rotate(62.8 53.635 26.76)" rx="1.1" ry="1.1"></ellipse><ellipse cx="52.5" cy="30.3" transform="rotate(62.8 52.515 30.324)" rx="1.1" ry="1.1"></ellipse><ellipse cx="57.2" cy="27.9" transform="rotate(62.8 57.186 27.922)" rx="1.1" ry="1"></ellipse><path d="M55.2 24.1c.4-.2.6-.7.5-1.1-.4.4-.9.8-1.3 1.2.3.1.6.1.8-.1zm5 17.6c.2.2.5.3.8.2.1 0 .3 0 .4-.1.5-.3.7-.9.4-1.4-.2-.4-.6-.6-1-.6-.1 0-.3 0-.4.1-.3.1-.4.4-.5.6-.1.3-.1.5.1.8 0 .2.1.3.2.4z"></path><ellipse cx="58.5" cy="36.2" transform="rotate(62.8 58.493 36.21)" rx="1.1" ry="1.1"></ellipse><ellipse cx="57.3" cy="39.8" transform="scale(-1) rotate(62.8 65.168 -93.997)" rx="1.1" ry="1.1"></ellipse><ellipse cx="62" cy="37.4" transform="rotate(62.8 62.044 37.373)" rx="1.1" ry="1"></ellipse><ellipse cx="54.9" cy="35" transform="rotate(62.8 54.943 35.05)" rx="1.1" ry="1.1"></ellipse><ellipse cx="59.6" cy="32.6" transform="rotate(62.8 59.615 32.647)" rx="1.1" ry="1"></ellipse><path d="M49.4 30.1c.4-.2.6-.6.6-1-.2.3-.4.5-.6.8-.1.1-.1.2-.2.3 0 0 .1-.1.2-.1zm-1.1 3.6c.5-.3.7-.9.4-1.4-.2-.3-.5-.5-.8-.5-.4.5-.7 1-1.1 1.5.4.4 1 .6 1.5.4zm5 4l-.3.3c-.2.2-.3.5-.2.8 0 .1 0 .3.1.4.3.5.9.7 1.4.5.5-.3.7-.9.4-1.4-.2-.7-.9-.9-1.4-.6z"></path><ellipse cx="50.2" cy="37.4" transform="scale(-1) rotate(-27.2 -154.766 207.74)" rx="1.1" ry="1.1"></ellipse><path d="M50.7 34.7c.2.2.5.3.8.2.1 0 .3 0 .4-.1.3-.1.4-.4.5-.6.1-.3.1-.5-.1-.8l-.3-.3c-.2-.2-.5-.3-.8-.2-.1 0-.3 0-.4.1l-.3.3c-.3.3-.3.8-.1 1.2.1 0 .2.1.3.2zm.7 33.8c-.5.3-.7.9-.4 1.4 0 .1.1.2.2.2.2-.2.3-.4.5-.6.3-.3.5-.7.8-1-.1 0-.1-.1-.2-.1-.3-.1-.6-.1-.9.1z"></path><ellipse cx="48.4" cy="68.3" transform="scale(-1) rotate(62.8 111.877 -79.293)" rx="1.1" ry="1.1"></ellipse><path d="M52.6 64.9c-.5.3-.7.9-.4 1.4.3.5.9.7 1.4.5.1 0 .1-.1.2-.2.1-.2.2-.3.3-.5.1-.2 0-.5-.1-.7-.3-.5-.9-.8-1.4-.5zm-5.4 5.9c-.1 0-.3 0-.4.1l-.3.3c-.1.1-.2.2-.2.4-.1.3-.1.5.1.8l.3.3c.2.2.5.3.8.2.1 0 .3 0 .4-.1l.3-.3c.2-.2.3-.5.2-.8 0-.1 0-.3-.1-.4-.3-.4-.7-.6-1.1-.5zM32.4 54.4c-.5.3-.7.9-.4 1.4l.3.3c.2.2.5.3.8.2.1 0 .3 0 .4-.1l.3-.3c.2-.2.3-.5.2-.8 0-.1 0-.3-.1-.4-.1-.3-.4-.4-.6-.5-.4 0-.7 0-.9.2z"></path><ellipse cx="29.3" cy="54.2" transform="scale(-1) rotate(62.8 88.777 -48.065)" rx="1.1" ry="1.1"></ellipse><ellipse cx="34" cy="51.8" transform="scale(-1) rotate(62.8 84.842 -55.72)" rx="1.1" ry="1.1"></ellipse><ellipse cx="35.3" cy="60" transform="scale(-1) rotate(62.8 98.423 -57.862)" rx="1.1" ry="1"></ellipse><ellipse cx="34.2" cy="63.6" transform="rotate(62.8 34.195 63.636)" rx="1.1" ry="1.1"></ellipse><ellipse cx="38.9" cy="61.2" transform="rotate(62.8 38.867 61.236)" rx="1.1" ry="1"></ellipse><ellipse cx="31.8" cy="58.9" transform="scale(-1) rotate(62.8 96.519 -52.045)" rx="1.1" ry="1.1"></ellipse><ellipse cx="36.4" cy="56.5" transform="scale(-1) rotate(62.8 92.584 -59.698)" rx="1.1" ry="1.1"></ellipse><path d="M43.3 73.4c-.3-.3-.8-.3-1.2-.1-.5.3-.7.9-.4 1.4.3.5.9.7 1.4.5.5-.3.7-.9.4-1.4 0-.2-.1-.3-.2-.4zm2-5.4c.5-.3.7-.9.4-1.4l-.3-.3c-.3-.3-.8-.3-1.2-.1-.3.1-.4.4-.5.6-.1.3-.1.5.1.8.4.5 1 .7 1.5.4z"></path><ellipse cx="40.2" cy="69.5" transform="rotate(-27.2 40.168 69.514)" rx="1.1" ry="1.1"></ellipse><ellipse cx="39" cy="73.1" transform="scale(-1) rotate(62.8 119.746 -63.982)" rx="1.1" ry="1.1"></ellipse><ellipse cx="43.7" cy="70.7" transform="scale(-1) rotate(62.8 115.812 -71.64)" rx="1.1" ry="1.1"></ellipse><ellipse cx="36.6" cy="68.3" transform="scale(-1) rotate(62.8 112.004 -60.004)" rx="1.1" ry="1.1"></ellipse><ellipse cx="41.3" cy="65.9" transform="scale(-1) rotate(62.8 108.07 -67.658)" rx="1.1" ry="1.1"></ellipse><path d="M38.2 75.6c-.3-.1-.5-.1-.8.1-.3.1-.4.4-.5.6s-.1.5.1.8c.1.3.4.4.6.5.3.1.5.1.8-.1l.3-.3c.1-.1.2-.2.2-.4 0-.1.1-.3 0-.4 0-.1 0-.3-.1-.4-.1-.1-.3-.3-.6-.4zm4.9-14c-.3-.3-.8-.3-1.2-.1-.3.1-.4.4-.5.6 0 .1-.1.3 0 .4 0 .1 0 .3.1.4.1.3.4.4.6.5.1 0 .3.1.4 0 .1 0 .3 0 .4-.1.3-.1.4-.4.5-.6.1-.3.1-.5-.1-.8 0-.1-.1-.3-.2-.3zm-5.9 2.2c-.5.3-.7.9-.4 1.4l.3.3c.2.2.5.3.8.2.1 0 .3 0 .4-.1.5-.3.7-.9.4-1.4-.3-.4-.9-.6-1.5-.4zm3.8 13c-.5.3-.7.9-.4 1.4.2.4.6.6 1 .6l.9-.6c.1-.3.1-.6 0-.9-.4-.5-1-.7-1.5-.5zm4.6-2.4c-.5.3-.7.9-.4 1.4l.1.1c.5-.4 1-.9 1.6-1.3-.4-.3-.8-.4-1.3-.2zM27.7 56.8l-.3.3c-.1.1-.2.2-.2.4-.1.3-.1.5.1.8l.3.3c.2.2.5.3.8.2.1 0 .3 0 .4-.1.3-.1.4-.4.5-.6.1-.3.1-.5-.1-.8-.2-.4-.6-.6-1-.6-.2 0-.4 0-.5.1zM23 59.2c-.3.1-.4.4-.5.6-.1.3-.1.5.1.8.1.3.4.4.6.5.3.1.5.1.8-.1l.3-.3c.3-.3.3-.8.1-1.2-.2-.4-.8-.6-1.4-.3zm2.3-7.1c-.5.3-.7.9-.4 1.4.1.3.4.4.6.5.3.1.5.1.8-.1.5-.3.7-.9.4-1.4-.3-.5-.9-.7-1.4-.4z"></path><ellipse cx="21.1" cy="55.4" transform="scale(-1) rotate(62.8 90.808 -34.592)" rx="1.1" ry="1"></ellipse><ellipse cx="20" cy="59" transform="scale(-1) rotate(62.8 96.646 -32.753)" rx="1.1" ry="1.1"></ellipse><ellipse cx="24.7" cy="56.6" transform="scale(-1) rotate(62.8 92.712 -40.41)" rx="1.1" ry="1.1"></ellipse><path d="M30.1 61.5c-.5.3-.7.9-.4 1.4s.9.7 1.4.5c.5-.3.7-.9.4-1.4-.2-.6-.8-.8-1.4-.5z"></path><ellipse cx="26" cy="64.8" transform="rotate(62.8 25.971 64.876)" rx="1.1" ry="1.1"></ellipse><ellipse cx="24.8" cy="68.4" transform="scale(-1) rotate(62.8 112.131 -40.715)" rx="1.1" ry="1.1"></ellipse><ellipse cx="29.5" cy="66" transform="rotate(62.8 29.522 66.04)" rx="1.1" ry="1"></ellipse><ellipse cx="22.4" cy="63.7" transform="scale(-1) rotate(62.8 104.388 -36.733)" rx="1.1" ry="1.1"></ellipse><ellipse cx="27.1" cy="61.3" transform="scale(-1) rotate(62.8 100.454 -44.39)" rx="1.1" ry="1.1"></ellipse><path d="M20.8 66.3c-.5.3-.7.9-.4 1.4.1.3.4.4.6.5.3.1.5.1.8-.1.5-.3.7-.9.4-1.4-.2-.5-.9-.7-1.4-.4zM33.2 78c-.1 0-.3 0-.4.1-.4.2-.6.6-.6 1 0 .1 0 .3.1.4.3.5.9.7 1.4.5.5-.3.7-.9.4-1.4-.1-.5-.5-.7-.9-.6zm2.8-5.2c.5-.3.7-.9.4-1.4-.3-.5-.9-.7-1.4-.5-.5.3-.7.9-.4 1.4.2.6.9.8 1.4.5z"></path><ellipse cx="30.8" cy="74.3" transform="rotate(-27.2 30.826 74.32)" rx="1.1" ry="1.1"></ellipse><ellipse cx="29.7" cy="77.9" transform="scale(-1) rotate(62.8 127.616 -48.673)" rx="1.1" ry="1.1"></ellipse><ellipse cx="34.4" cy="75.5" transform="scale(-1) rotate(62.8 123.68 -56.326)" rx="1.1" ry="1.1"></ellipse><ellipse cx="27.3" cy="73.1" transform="rotate(-27.2 27.277 73.16)" rx="1.1" ry="1.1"></ellipse><ellipse cx="31.9" cy="70.7" transform="scale(-1) rotate(62.8 115.938 -52.347)" rx="1.1" ry="1.1"></ellipse><path d="M29.5 80.9l-.3-.3c-.1-.1-.2-.2-.4-.2-.3-.1-.5-.1-.8.1l-.3.3c-.2.2-.3.5-.2.8 0 .1 0 .3.1.4.2.4.6.6 1 .6.1 0 .3 0 .4-.1l.3-.3c.1-.1.2-.2.2-.4.2-.3.1-.6 0-.9zm-3-5.2c-.3-.1-.5-.1-.8.1-.5.3-.7.9-.4 1.4s.9.7 1.4.5c.5-.3.7-.9.4-1.4-.2-.3-.4-.5-.6-.6zm7-7.6c.3-.1.4-.4.5-.6s.1-.5-.1-.8c-.1-.3-.4-.4-.6-.5-.3-.1-.5-.1-.8.1-.5.3-.7.9-.4 1.4.2.4.6.6 1 .6.2-.1.3-.1.4-.2zm-5.6.5c-.5.3-.7.9-.4 1.4.3.5.9.7 1.4.5.4-.2.6-.6.6-1 0-.1 0-.3-.1-.4-.3-.5-1-.7-1.5-.5zm3.7 13c-.5.3-.7.9-.4 1.4.1.2.3.4.6.5.4-.1.7-.2 1.1-.3.3-.3.4-.8.1-1.2-.2-.4-.8-.6-1.4-.4z"></path><ellipse cx="36.8" cy="80.2" transform="scale(-1) rotate(62.8 131.424 -60.306)" rx="1.1" ry="1.1"></ellipse><path d="M18.4 61.6c-.3.1-.4.4-.5.6-.1.3-.1.5.1.8.1.3.4.4.6.5s.5.1.8-.1l.3-.3c.1-.1.2-.2.2-.4 0-.1.1-.3 0-.4s0-.3-.1-.4l-.3-.3c-.1-.1-.2-.2-.4-.2s-.5 0-.7.2zm-3-3.7c0 .1 0 .3.1.4.3.5.9.7 1.4.5.4-.2.6-.6.6-1 0-.1 0-.3-.1-.4l-.3-.3c-.2-.2-.5-.3-.8-.2-.1 0-.3 0-.4.1-.3.1-.5.5-.5.9z"></path><ellipse cx="11.8" cy="60.2" transform="rotate(-27.2 11.767 60.222)" rx="1.1" ry="1.1"></ellipse><path d="M10.2 62.8c-.2.1-.3.2-.4.4.3.5.5 1.1.8 1.6.2 0 .4 0 .6-.1.5-.3.7-.9.4-1.4-.3-.5-.9-.7-1.4-.5z"></path><ellipse cx="15.3" cy="61.4" transform="scale(-1) rotate(62.8 100.581 -25.099)" rx="1.1" ry="1.1"></ellipse><path d="M7.7 58.1c-.1 0-.1.1-.1.1.2.6.5 1.2.8 1.9.1 0 .2 0 .3-.1.5-.3.7-.9.4-1.4-.2-.6-.9-.8-1.4-.5z"></path><ellipse cx="12.9" cy="56.6" transform="rotate(62.8 12.89 56.665)" rx="1.1" ry="1"></ellipse><path d="M18.6 73.4c-.4.2-.6.6-.6 1 0 .1 0 .3.1.4l.3.3c.2.2.5.3.8.2.1 0 .3 0 .4-.1.5-.3.7-.9.4-1.4-.3-.4-.9-.6-1.4-.4z"></path><ellipse cx="16.6" cy="69.6" transform="scale(-1) rotate(62.8 114.162 -27.24)" rx="1.1" ry="1"></ellipse><path d="M15 72.3l-.1.1c.4.6.8 1.2 1.2 1.7.4-.3.6-.9.3-1.3-.2-.6-.9-.8-1.4-.5z"></path><ellipse cx="20.2" cy="70.8" transform="rotate(-27.2 20.173 70.833)" rx="1.1" ry="1.1"></ellipse><path d="M12.6 67.5c-.2.1-.3.2-.4.4.3.5.6 1.1.9 1.6.1 0 .3 0 .4-.1.5-.3.7-.9.4-1.4-.2-.5-.8-.7-1.3-.5z"></path><ellipse cx="17.7" cy="66.1" transform="rotate(-27.2 17.745 66.108)" rx="1.1" ry="1.1"></ellipse><path d="M15.1 64.4c-.1-.3-.4-.4-.6-.5-.3-.1-.5-.1-.8.1-.4.2-.6.6-.6 1 0 .1 0 .3.1.4.3.5.9.7 1.4.5.6-.3.8-.9.5-1.5zM21 78.2c-.4.2-.5.5-.6.9.4.4.8.7 1.2 1.1.1 0 .2 0 .3-.1.5-.3.7-.9.4-1.4-.2-.6-.8-.8-1.3-.5z"></path><ellipse cx="25" cy="80.3" transform="scale(-1) rotate(62.8 131.55 -41.015)" rx="1.1" ry="1.1"></ellipse><path d="M18.5 77.1c.1.1.2.3.4.4-.1-.2-.3-.3-.4-.4z"></path><ellipse cx="22.6" cy="75.5" transform="scale(-1) rotate(62.8 123.809 -37.038)" rx="1.1" ry="1.1"></ellipse><path d="M24.2 72.9c.3-.1.4-.4.5-.6.1-.3.1-.5-.1-.8-.1-.3-.3-.5-.6-.5-.1 0-.3-.1-.4 0-.1 0-.3 0-.4.1l-.3.3c-.1.1-.2.2-.2.4-.1.3-.1.5.1.8.3.4.9.6 1.4.3z"></path></g><!----><g data-v-423bf9ae="" id="70bd399e-a47d-41ab-901c-c97aa6c1f3e8" fill="white" transform="matrix(0.38384178280830383,0,0,0.38384178280830383,134.46218872070312,59.05958938598633)"><path d="M1.12 7.70C1.12 6.38 1.53 5.29 2.34 4.41C3.15 3.53 4.18 3.09 5.42 3.09C6.66 3.09 7.69 3.53 8.50 4.41C9.31 5.29 9.72 6.38 9.72 7.70C9.72 9.02 9.31 10.11 8.50 10.99C7.69 11.87 6.66 12.31 5.42 12.31C4.18 12.31 3.15 11.87 2.34 10.99C1.53 10.11 1.12 9.02 1.12 7.70ZM0.70 7.70C0.70 9.16 1.15 10.36 2.04 11.30C2.93 12.24 4.06 12.71 5.42 12.71C6.78 12.71 7.91 12.24 8.80 11.30C9.69 10.36 10.14 9.16 10.14 7.70C10.14 6.24 9.69 5.04 8.80 4.10C7.91 3.16 6.78 2.69 5.42 2.69C4.06 2.69 2.93 3.16 2.04 4.10C1.15 5.04 0.70 6.24 0.70 7.70ZM19.10 2.80L19.10 12.60L19.52 12.60L19.52 8.48L21.20 8.48C22.16 8.48 22.92 8.23 23.50 7.73C24.07 7.22 24.36 6.53 24.36 5.64C24.36 4.76 24.07 4.06 23.50 3.56C22.92 3.05 22.16 2.80 21.20 2.80ZM19.52 3.21L21.20 3.21C22.05 3.21 22.72 3.41 23.20 3.83C23.69 4.24 23.93 4.85 23.93 5.64C23.93 6.44 23.69 7.04 23.20 7.45C22.72 7.87 22.05 8.08 21.20 8.08L19.52 8.08ZM33.74 7.48L38.08 7.48L38.08 7.08L33.74 7.08L33.74 3.21L38.36 3.21L38.36 2.80L33.32 2.80L33.32 12.60L38.36 12.60L38.36 12.19L33.74 12.19ZM54.67 2.80L54.67 11.79L47.18 2.45L47.18 12.60L47.60 12.60L47.60 3.61L55.09 12.95L55.09 2.80ZM74.93 9.74L74.55 9.90C75.18 11.77 76.23 12.71 77.70 12.71C78.61 12.71 79.31 12.45 79.77 11.93C80.24 11.41 80.47 10.77 80.47 10.01C80.47 9.66 80.41 9.35 80.30 9.06C80.18 8.78 80.05 8.55 79.91 8.37C79.76 8.19 79.56 8.02 79.30 7.86C79.03 7.70 78.82 7.58 78.66 7.50C78.50 7.43 78.27 7.34 77.99 7.22C77.96 7.21 77.84 7.16 77.64 7.08C77.45 7.01 77.33 6.96 77.28 6.94C77.23 6.91 77.13 6.87 76.96 6.80C76.79 6.73 76.68 6.67 76.63 6.64C76.58 6.60 76.49 6.54 76.36 6.45C76.23 6.37 76.14 6.30 76.09 6.24C76.04 6.18 75.98 6.10 75.89 6.00C75.81 5.90 75.75 5.80 75.72 5.70C75.69 5.61 75.66 5.50 75.63 5.38C75.60 5.25 75.59 5.12 75.59 4.98C75.59 4.41 75.78 3.95 76.18 3.62C76.58 3.29 77.07 3.12 77.66 3.12C78.79 3.12 79.57 3.77 80.01 5.07L80.42 4.90C80.21 4.23 79.87 3.69 79.41 3.29C78.94 2.89 78.36 2.69 77.67 2.69C76.98 2.69 76.38 2.90 75.87 3.33C75.36 3.76 75.11 4.33 75.11 5.04C75.11 5.39 75.18 5.71 75.33 5.99C75.47 6.27 75.69 6.51 75.97 6.71C76.26 6.91 76.51 7.07 76.74 7.17C76.97 7.28 77.27 7.41 77.63 7.55C77.91 7.65 78.10 7.72 78.20 7.77C78.31 7.82 78.48 7.90 78.72 8.02C78.96 8.13 79.14 8.24 79.25 8.34C79.35 8.45 79.48 8.58 79.63 8.75C79.77 8.92 79.87 9.11 79.93 9.32C79.98 9.54 80.01 9.78 80.01 10.05C80.01 10.72 79.82 11.27 79.44 11.68C79.07 12.09 78.50 12.29 77.74 12.29C76.51 12.29 75.57 11.44 74.93 9.74ZM89.36 7.70C89.36 6.38 89.77 5.29 90.58 4.41C91.39 3.53 92.42 3.09 93.66 3.09C94.90 3.09 95.93 3.53 96.74 4.41C97.55 5.29 97.96 6.38 97.96 7.70C97.96 9.02 97.55 10.11 96.74 10.99C95.93 11.87 94.90 12.31 93.66 12.31C92.42 12.31 91.39 11.87 90.58 10.99C89.77 10.11 89.36 9.02 89.36 7.70ZM88.94 7.70C88.94 9.16 89.39 10.36 90.28 11.30C91.17 12.24 92.30 12.71 93.66 12.71C95.02 12.71 96.15 12.24 97.04 11.30C97.93 10.36 98.38 9.16 98.38 7.70C98.38 6.24 97.93 5.04 97.04 4.10C96.15 3.16 95.02 2.69 93.66 2.69C92.30 2.69 91.17 3.16 90.28 4.10C89.39 5.04 88.94 6.24 88.94 7.70ZM107.27 2.80L107.27 9.24C107.27 10.29 107.55 11.13 108.12 11.77C108.69 12.42 109.45 12.74 110.39 12.74C111.33 12.74 112.09 12.42 112.66 11.77C113.23 11.13 113.51 10.29 113.51 9.24L113.51 2.80L113.09 2.80L113.09 9.24C113.09 10.17 112.84 10.92 112.33 11.47C111.82 12.02 111.17 12.29 110.39 12.29C109.61 12.29 108.96 12.02 108.45 11.47C107.94 10.92 107.69 10.17 107.69 9.24L107.69 2.80ZM123.38 2.80ZM122.96 2.80L122.96 12.60L123.38 12.60L123.38 8.48L124.94 8.48L128.06 12.60L128.60 12.60L125.41 8.47C126.31 8.41 127.02 8.15 127.56 7.67C128.10 7.20 128.37 6.52 128.37 5.64C128.37 4.71 128.06 4.00 127.46 3.52C126.85 3.04 126.05 2.80 125.06 2.80ZM123.38 3.21L125.06 3.21C125.93 3.21 126.63 3.41 127.15 3.83C127.67 4.24 127.93 4.85 127.93 5.64C127.93 6.44 127.67 7.04 127.15 7.45C126.63 7.87 125.93 8.08 125.06 8.08L123.38 8.08ZM136.91 7.70C136.91 6.33 137.29 5.22 138.05 4.38C138.81 3.53 139.81 3.11 141.06 3.11C142.26 3.11 143.31 3.54 144.21 4.41L144.21 3.81C143.36 3.06 142.31 2.69 141.06 2.69C139.71 2.69 138.60 3.16 137.74 4.09C136.88 5.03 136.44 6.23 136.44 7.70C136.44 9.17 136.88 10.37 137.74 11.30C138.60 12.24 139.71 12.71 141.06 12.71C142.31 12.71 143.36 12.34 144.21 11.59L144.21 11.03C143.35 11.87 142.30 12.29 141.06 12.29C139.81 12.29 138.81 11.87 138.05 11.03C137.29 10.18 136.91 9.07 136.91 7.70ZM154.01 7.48L158.35 7.48L158.35 7.08L154.01 7.08L154.01 3.21L158.63 3.21L158.63 2.80L153.59 2.80L153.59 12.60L158.63 12.60L158.63 12.19L154.01 12.19ZM178.89 9.74L178.51 9.90C179.14 11.77 180.19 12.71 181.66 12.71C182.58 12.71 183.27 12.45 183.74 11.93C184.20 11.41 184.44 10.77 184.44 10.01C184.44 9.66 184.38 9.35 184.26 9.06C184.14 8.78 184.01 8.55 183.87 8.37C183.72 8.19 183.52 8.02 183.26 7.86C183.00 7.70 182.79 7.58 182.62 7.50C182.46 7.43 182.24 7.34 181.96 7.22C181.92 7.21 181.80 7.16 181.61 7.08C181.41 7.01 181.29 6.96 181.24 6.94C181.20 6.91 181.09 6.87 180.92 6.80C180.75 6.73 180.64 6.67 180.59 6.64C180.54 6.60 180.45 6.54 180.32 6.45C180.19 6.37 180.10 6.30 180.05 6.24C180.01 6.18 179.94 6.10 179.86 6.00C179.77 5.90 179.72 5.80 179.68 5.70C179.65 5.61 179.62 5.50 179.59 5.38C179.56 5.25 179.55 5.12 179.55 4.98C179.55 4.41 179.75 3.95 180.14 3.62C180.54 3.29 181.03 3.12 181.62 3.12C182.75 3.12 183.54 3.77 183.97 5.07L184.38 4.90C184.17 4.23 183.84 3.69 183.37 3.29C182.91 2.89 182.33 2.69 181.64 2.69C180.95 2.69 180.35 2.90 179.84 3.33C179.33 3.76 179.07 4.33 179.07 5.04C179.07 5.39 179.15 5.71 179.29 5.99C179.44 6.27 179.65 6.51 179.93 6.71C180.22 6.91 180.48 7.07 180.70 7.17C180.93 7.28 181.23 7.41 181.59 7.55C181.87 7.65 182.07 7.72 182.17 7.77C182.27 7.82 182.44 7.90 182.69 8.02C182.93 8.13 183.10 8.24 183.21 8.34C183.32 8.45 183.44 8.58 183.59 8.75C183.73 8.92 183.83 9.11 183.89 9.32C183.95 9.54 183.97 9.78 183.97 10.05C183.97 10.72 183.78 11.27 183.41 11.68C183.03 12.09 182.46 12.29 181.71 12.29C180.47 12.29 179.54 11.44 178.89 9.74ZM193.47 2.80L193.47 12.60L193.89 12.60L193.89 8.48L195.57 8.48C196.53 8.48 197.29 8.23 197.87 7.73C198.44 7.22 198.73 6.53 198.73 5.64C198.73 4.76 198.44 4.06 197.87 3.56C197.29 3.05 196.53 2.80 195.57 2.80ZM193.89 3.21L195.57 3.21C196.42 3.21 197.09 3.41 197.57 3.83C198.06 4.24 198.30 4.85 198.30 5.64C198.30 6.44 198.06 7.04 197.57 7.45C197.09 7.87 196.42 8.08 195.57 8.08L193.89 8.08ZM207.55 7.70C207.55 6.38 207.96 5.29 208.77 4.41C209.58 3.53 210.61 3.09 211.85 3.09C213.09 3.09 214.12 3.53 214.93 4.41C215.74 5.29 216.15 6.38 216.15 7.70C216.15 9.02 215.74 10.11 214.93 10.99C214.12 11.87 213.09 12.31 211.85 12.31C210.61 12.31 209.58 11.87 208.77 10.99C207.96 10.11 207.55 9.02 207.55 7.70ZM207.13 7.70C207.13 9.16 207.58 10.36 208.47 11.30C209.36 12.24 210.49 12.71 211.85 12.71C213.21 12.71 214.34 12.24 215.23 11.30C216.12 10.36 216.57 9.16 216.57 7.70C216.57 6.24 216.12 5.04 215.23 4.10C214.34 3.16 213.21 2.69 211.85 2.69C210.49 2.69 209.36 3.16 208.47 4.10C207.58 5.04 207.13 6.24 207.13 7.70ZM224.27 3.21L226.79 3.21L226.79 12.60L227.21 12.60L227.21 3.21L229.73 3.21L229.73 2.80L224.27 2.80ZM238.20 2.80L238.20 12.60L238.62 12.60L238.62 2.80ZM248.49 7.64L252.41 7.64L252.41 7.24L248.49 7.24L248.49 3.21L252.55 3.21L252.55 2.80L248.07 2.80L248.07 12.60L248.49 12.60ZM267.02 2.80L264.01 8.16L261.13 2.80L260.60 2.80L263.79 8.62L263.79 12.60L264.24 12.60L264.24 8.61L267.55 2.80ZM287.13 7.70C287.13 6.33 287.51 5.22 288.27 4.38C289.03 3.53 290.03 3.11 291.28 3.11C292.48 3.11 293.53 3.54 294.43 4.41L294.43 3.81C293.58 3.06 292.53 2.69 291.28 2.69C289.93 2.69 288.82 3.16 287.96 4.09C287.10 5.03 286.66 6.23 286.66 7.70C286.66 9.17 287.10 10.37 287.96 11.30C288.82 12.24 289.93 12.71 291.28 12.71C292.53 12.71 293.58 12.34 294.43 11.59L294.43 11.03C293.57 11.87 292.52 12.29 291.28 12.29C290.03 12.29 289.03 11.87 288.27 11.03C287.51 10.18 287.13 9.07 287.13 7.70ZM303.81 2.80L303.81 12.60L308.29 12.60L308.29 12.19L304.23 12.19L304.23 2.80ZM316.76 2.80L316.76 12.60L317.18 12.60L317.18 2.80ZM327.05 7.48L331.39 7.48L331.39 7.08L327.05 7.08L327.05 3.21L331.67 3.21L331.67 2.80L326.63 2.80L326.63 12.60L331.67 12.60L331.67 12.19L327.05 12.19ZM347.98 2.80L347.98 11.79L340.49 2.45L340.49 12.60L340.91 12.60L340.91 3.61L348.40 12.95L348.40 2.80ZM356.38 3.21L358.90 3.21L358.90 12.60L359.32 12.60L359.32 3.21L361.84 3.21L361.84 2.80L356.38 2.80ZM381.58 2.80L381.58 12.60L386.06 12.60L386.06 12.19L382.00 12.19L382.00 2.80ZM394.53 2.80L394.53 12.60L394.95 12.60L394.95 2.80ZM404.40 2.80L404.40 12.60L406.50 12.60C408.63 12.60 409.70 11.69 409.70 9.87C409.70 9.19 409.46 8.62 408.99 8.17C408.52 7.72 407.95 7.41 407.29 7.25C408.52 7.02 409.14 6.30 409.14 5.11C409.14 4.40 408.88 3.84 408.37 3.42C407.86 3.01 407.15 2.80 406.22 2.80ZM404.82 7.08L404.82 3.21L406.22 3.21C407.00 3.21 407.61 3.37 408.05 3.71C408.49 4.05 408.72 4.51 408.72 5.11C408.72 5.60 408.58 5.99 408.31 6.31C408.04 6.62 407.73 6.83 407.38 6.93C407.03 7.03 406.64 7.08 406.22 7.08ZM404.82 7.48L406.50 7.48C406.91 7.48 407.31 7.56 407.71 7.72C408.11 7.88 408.46 8.16 408.77 8.54C409.08 8.92 409.23 9.37 409.23 9.87C409.23 11.42 408.32 12.19 406.50 12.19L404.82 12.19ZM419.22 2.80ZM418.80 2.80L418.80 12.60L419.22 12.60L419.22 8.48L420.77 8.48L423.89 12.60L424.44 12.60L421.25 8.47C422.14 8.41 422.86 8.15 423.39 7.67C423.93 7.20 424.20 6.52 424.20 5.64C424.20 4.71 423.90 4.00 423.29 3.52C422.68 3.04 421.89 2.80 420.90 2.80ZM419.22 3.21L420.90 3.21C421.76 3.21 422.46 3.41 422.98 3.83C423.50 4.24 423.77 4.85 423.77 5.64C423.77 6.44 423.50 7.04 422.98 7.45C422.46 7.87 421.76 8.08 420.90 8.08L419.22 8.08ZM436.06 2.45L431.79 12.60L432.28 12.60L433.55 9.52L438.56 9.52L439.84 12.60L440.33 12.60ZM436.06 3.50L438.37 9.07L433.75 9.07ZM449.22 2.80ZM448.80 2.80L448.80 12.60L449.22 12.60L449.22 8.48L450.77 8.48L453.89 12.60L454.44 12.60L451.25 8.47C452.14 8.41 452.86 8.15 453.40 7.67C453.93 7.20 454.20 6.52 454.20 5.64C454.20 4.71 453.90 4.00 453.29 3.52C452.69 3.04 451.89 2.80 450.90 2.80ZM449.22 3.21L450.90 3.21C451.77 3.21 452.46 3.41 452.98 3.83C453.51 4.24 453.77 4.85 453.77 5.64C453.77 6.44 453.51 7.04 452.98 7.45C452.46 7.87 451.77 8.08 450.90 8.08L449.22 8.08ZM468.22 2.80L465.21 8.16L462.32 2.80L461.79 2.80L464.98 8.62L464.98 12.60L465.43 12.60L465.43 8.61L468.75 2.80Z"></path></g></svg>