<svg data-v-fde0c5aa="" xmlns="http://www.w3.org/2000/svg" viewBox="0 0 300 300" class="icon"><!----><defs data-v-fde0c5aa=""><!----></defs><rect data-v-fde0c5aa="" fill="#4D6552" x="0" y="0" width="300px" height="300px" class="logo-background-square"></rect><!----><defs data-v-fde0c5aa=""><!----></defs><g data-v-fde0c5aa="" id="96a6302f-7470-4b9a-8a54-18d4080b878b" fill="#D22C9B" stroke="none" transform="matrix(2.444444417953491,0,0,2.444444417953491,27.777777777777764,29.48889075385199)"><path d="M95 53.9v-.4c0-.1-.1-.1-.1-.1 0-.1-.1-.1-.1-.2l-.1-.1c-.1 0-.1-.1-.2-.1h-.4c-1.7 0-3.1-.7-4.3-1.7.3-.1.4-.4.5-.6.1-.3.1-.5-.1-.8-.1-.3-.4-.4-.6-.5-.3-.1-.5-.1-.8.1-.2.1-.3.2-.4.4-.7-1-1.4-2.1-2-3.3.3.2.7.2 1 0 .5-.3.7-.9.4-1.4-.3-.5-.9-.7-1.4-.5-.3.2-.5.5-.5.8l-.9-1.8-.9-1.8c.3.1.6.1.9 0 .5-.3.7-.9.4-1.4l-.3-.3c-.3-.3-.8-.3-1.2-.1-.3.2-.5.4-.5.7-1.1-2.1-2.4-4-3.9-5.3.1-.3.1-.5-.1-.8-.3-.5-.9-.7-1.4-.5-.1 0-.1.1-.2.2-.6-.3-1.2-.5-1.8-.6 0-.1 0-.2-.1-.3l-.3-.3c-.1-.1-.2-.2-.4-.2-.3-.1-.5-.1-.8.1l-.3.3c-.1.1-.2.2-.2.4-1.4.1-2.6.7-3.8 1.7-.1 0-.3 0-.4.1-.3.2-.5.4-.5.8-1.4 1.4-2.7 3.4-3.9 5.6-.3-.5-.9-.7-1.4-.4-.5.3-.7.9-.4 1.4.2.4.6.6 1 .6-.3.5-.5 1-.8 1.5-.3-.1-.6-.1-.9 0l-.1.1c-.6-.2-1.3-.4-2-.5 0-.1 0-.2-.1-.2-.3-.5-.9-.7-1.4-.5-.2.1-.3.2-.4.3-.5-.1-1.1-.2-1.7-.3v-.4c0-.1 0-.3-.1-.4-.1-.3-.4-.4-.6-.5-.3-.1-.5-.1-.8.1l-.3.3c-.1.1-.2.2-.2.4v.4c-.8-.1-1.5-.1-2.4-.2.1 0 .2 0 .4-.1.5-.3.7-.9.4-1.4-.3-.5-.9-.7-1.4-.5-.5.3-.7.9-.4 1.4.2.3.5.5.8.5-.8 0-1.6-.1-2.5-.1h-1.2c-.2-.5-.4-1.1-.6-1.6.3.5.9.6 1.4.4.5-.3.7-.9.4-1.4-.3-.5-.9-.7-1.4-.5-.4.2-.6.6-.6 1-.5-1.3-.9-2.5-1.4-3.8.2 0 .3 0 .5-.1l.3-.3c.3-.3.3-.8.1-1.2-.3-.5-.9-.7-1.4-.5-.1 0-.2.1-.2.2C41.1 23.4 36.3 14 30.4 14c-15 0-25 38.2-25.4 39.9v.5c0 .1 0 .1.1.2 0 .1.1.1.1.2l.1.1.1.1c.1 0 .1.1.2.1h.6c0 .1.1.2.1.3l.3-.3h1.8c-.1.1-.1.2-.2.3-.1.3-.1.5.1.8.3.5.9.7 1.4.5.3-.1.4-.4.5-.6.1-.3.1-.5-.1-.8 0-.1-.1-.2-.2-.2 2.4-.1 4.5-.3 6.4-.6 0 .2 0 .4.1.6.3.5.9.7 1.4.5.5-.3.7-.9.4-1.4 1.3-.3 2.5-.6 3.6-.9.2 0 .4 0 .6-.1.1 0 .1-.1.2-.2 2.5-.8 4.6-1.7 6.7-2.7-.2.3-.3.8-.1 1.1.3.5.9.7 1.4.5.5-.3.7-.9.4-1.4-.2-.4-.5-.5-.9-.6 1.2-.6 2.4-1.1 3.6-1.6-.1.2 0 .5.1.7.2.4.6.6 1 .6.1 0 .3 0 .4-.1l.3-.3c.1-.1.1-.1.1-.2.5 1.1 1 2.1 1.5 3.2-.2 0-.4 0-.5.1-.4.2-.6.6-.6 1 0 .1 0 .3.1.4.2.4.6.6 1 .6.1 0 .3 0 .4-.1l.3-.3s0-.1.1-.1c.6 1.1 1.1 2.1 1.7 3.1-.2 0-.4 0-.6.1-.3.1-.4.4-.5.6-.1.3-.1.5.1.8.3.5.9.7 1.4.5.3-.1.4-.4.5-.6 1.3 2 2.7 3.7 4.2 4.8-.3.3-.4.8-.2 1.2.3.5.9.7 1.4.5.2-.1.4-.3.5-.6.5.2 1 .4 1.6.5-.1.3-.1.5.1.8.3.5.9.7 1.4.5.4-.2.6-.7.5-1.1 1.3-.1 2.5-.5 3.6-1.2h.1c4.7 11.9 9.5 20.9 15.4 20.9 15.2 0 25-28.8 25.4-30v-.2c.5-.4.5-.5.5-.5zM74.5 35.3c4.2 0 6.4 4.4 8.7 9.1 1.5 3.1 3.1 6.3 5.4 8.3-8.9-.6-13.6-2.8-18.2-4.9-1.6-.7-3.2-1.5-5-2.1 2.7-5.5 5.6-10.4 9.1-10.4zM50 45.1c5.5 0 9.4.7 12.7 1.7-.2.3-.3.7-.5 1C60 52.5 57.7 57.2 55 60c-1.5-3.8-2.9-7.8-4.3-11.6-.4-1.1-.8-2.2-1.2-3.4.2.1.3.1.5.1zM13.7 34.7c5.5-12.4 11.3-19 16.7-19 5.7 0 11.3 13.6 16.3 27.5-4.3.2-7.5.9-10.3 1.8-3.1-6.3-6.2-11.7-10.9-11.7-5.4 0-7.9 5.1-10.3 10.1-2.1 4.4-4.1 8.6-8 9.3.9-2.9 3.2-10.5 6.5-18zm-2.1 18c2.4-2.1 4-5.4 5.4-8.4 2.2-4.6 4.3-9 8.5-9 3.5 0 6.3 4.9 9 10.4-1.8.7-3.4 1.4-5 2.2-4.5 2-9.2 4.2-17.9 4.8zm26.2-4.9c-.2-.3-.3-.7-.5-1 2.7-.9 6-1.5 10.2-1.6.5 1.3 1 2.7 1.4 4 1.5 4.2 3 8.4 4.5 12.3-1.1.8-2.2 1.2-3.4 1.2-5.1-.1-8.7-7.6-12.2-14.9zm31.8 34.5c-4.8 0-9.4-9.2-13.8-20.2 3.2-3 5.7-8.2 8.2-13.3l.6-1.2c1.8.7 3.4 1.4 5 2.1 5.4 2.5 11.1 5.1 23.1 5.3-2.1 5.4-11 27.3-23.1 27.3z"></path><ellipse cx="72.3" cy="17.1" transform="rotate(62.8 72.325 17.153)" rx="1.1" ry="1.1"></ellipse><ellipse cx="71.2" cy="20.7" transform="rotate(62.8 71.203 20.717)" rx="1.1" ry="1.1"></ellipse><path d="M76.3 19.3c.4-.2.6-.7.5-1.1-.3-.3-.7-.6-1-.8-.2 0-.3 0-.5.1-.5.3-.7.9-.4 1.4.3.4.9.6 1.4.4z"></path><ellipse cx="68.7" cy="16" transform="rotate(62.8 68.776 15.992)" rx="1.1" ry="1.1"></ellipse><path d="M78.5 31.4c0 .1 0 .3.1.4.3.5.9.7 1.4.5.5-.3.7-.9.4-1.4-.1-.3-.4-.4-.6-.5-.3-.1-.5-.1-.8.1-.3.1-.5.5-.5.9zm3-6.2c.3.1.5.1.8-.1l.1-.1c-.2-.4-.4-.7-.7-1-.2-.2-.3-.5-.5-.7-.4.3-.6.9-.4 1.4.2.2.4.4.7.5z"></path><ellipse cx="77.2" cy="26.6" transform="scale(-1) rotate(-27.2 -109.944 318.96)" rx="1.1" ry="1.1"></ellipse><ellipse cx="76" cy="30.2" transform="scale(-1) rotate(62.8 49.427 -124.62)" rx="1.1" ry="1.1"></ellipse><ellipse cx="80.7" cy="27.8" transform="rotate(62.8 80.735 27.768)" rx="1.1" ry="1"></ellipse><ellipse cx="73.6" cy="25.4" transform="scale(-1) rotate(-27.2 -105.137 304.288)" rx="1.1" ry="1.1"></ellipse><ellipse cx="78.3" cy="23" transform="rotate(62.8 78.306 23.042)" rx="1.1" ry="1"></ellipse><path d="M73 29.9c.5-.3.7-.9.4-1.4-.3-.5-.9-.7-1.4-.5-.5.3-.7.9-.4 1.4.2.6.8.8 1.4.5zm6.1-9.4c-.2-.2-.3-.4-.5-.6-.1-.1-.2-.2-.2-.3 0 .1 0 .2.1.3.1.3.3.5.6.6zm-3.9 2.3c.4-.2.6-.6.6-1 0-.1 0-.3-.1-.4-.3-.5-.9-.7-1.4-.5-.5.3-.7.9-.4 1.4.2.6.8.8 1.3.5zm12 11.8l.1-.1c-.3-.6-.6-1.2-.8-1.9-.1 0-.2 0-.2.1-.3.1-.4.4-.5.6-.1.3-.1.5.1.8.1.5.7.7 1.3.5z"></path><ellipse cx="82" cy="36" transform="scale(-1) rotate(62.8 59.075 -134.416)" rx="1.1" ry="1"></ellipse><ellipse cx="85.6" cy="37.2" transform="scale(-1) rotate(-27.2 -153.807 353.707)" rx="1.1" ry="1.1"></ellipse><ellipse cx="83.1" cy="32.5" transform="scale(-1) rotate(-27.2 -134.277 343.67)" rx="1.1" ry="1.1"></ellipse><path d="M83.9 29.9c.3.1.5.1.8-.1.1-.1.2-.1.2-.2-.2-.3-.3-.6-.5-.9-.2-.3-.3-.6-.5-.9-.1 0-.2 0-.3.1-.3.1-.4.4-.5.6-.1.3-.1.5.1.8.2.4.5.5.7.6zm7 14c-.1-.4-.3-.8-.4-1.2 0 .1-.1.3 0 .4 0 .1 0 .3.1.4.1.2.2.3.3.4z"></path><ellipse cx="90.4" cy="46.6" transform="rotate(62.8 90.45 46.669)" rx="1.1" ry="1"></ellipse><ellipse cx="88" cy="41.9" transform="scale(-1) rotate(-27.2 -173.336 363.743)" rx="1.1" ry="1.1"></ellipse><path d="M88.4 39.2c.1.1.2.2.4.2.2.1.3.1.5 0-.1-.3-.2-.6-.4-.9-.1-.3-.3-.6-.4-1-.1.1-.2.1-.2.2-.1.1-.2.2-.2.4-.1.3-.1.5.1.8 0 .1.1.2.2.3zm4.9 13.1c.1 0 .1-.1.2-.2-.1-.5-.3-1.1-.5-1.8-.2 0-.4 0-.7.1-.5.3-.7.9-.4 1.4.3.6.9.8 1.4.5zm-23.7-29c-.3.1-.4.4-.5.6-.1.3-.1.5.1.8.3.5.9.7 1.4.5.3-.1.4-.4.5-.6.1-.3.1-.5-.1-.8-.1-.3-.4-.4-.6-.5-.3-.1-.6-.1-.8 0zm-5.3 3.4c0 .1 0 .3.1.4l.3.3c.2.2.5.3.8.2.1 0 .3 0 .4-.1.3-.1.4-.4.5-.6.1-.3.1-.5-.1-.8-.1-.3-.4-.4-.6-.5-.3-.1-.5-.1-.8.1-.4.2-.6.6-.6 1zm3-6.1c.3.1.5.1.8-.1.5-.3.7-.9.4-1.4-.3-.5-.9-.7-1.4-.5l-.3.3c-.2.2-.3.5-.2.8 0 .1 0 .3.1.4.1.2.3.4.6.5z"></path><ellipse cx="63" cy="21.9" transform="rotate(62.8 62.98 21.957)" rx="1.1" ry="1.1"></ellipse><ellipse cx="61.8" cy="25.5" transform="rotate(62.8 61.86 25.52)" rx="1.1" ry="1.1"></ellipse><ellipse cx="66.5" cy="23.1" transform="rotate(62.8 66.53 23.119)" rx="1.1" ry="1"></ellipse><path d="M59.9 21.7c.5-.3.7-.9.4-1.4-.2-.3-.5-.5-.8-.6-.4.3-.8.6-1.1.9 0 .2 0 .4.1.6.2.6.9.8 1.4.5z"></path><ellipse cx="64.1" cy="18.4" transform="rotate(62.8 64.102 18.393)" rx="1.1" ry="1"></ellipse><ellipse cx="67.8" cy="31.4" transform="rotate(62.8 67.839 31.408)" rx="1.1" ry="1.1"></ellipse><ellipse cx="66.7" cy="35" transform="rotate(62.8 66.717 34.971)" rx="1.1" ry="1.1"></ellipse><ellipse cx="71.4" cy="32.6" transform="scale(-1) rotate(62.8 53.363 -116.963)" rx="1.1" ry="1.1"></ellipse><ellipse cx="64.3" cy="30.2" transform="rotate(62.8 64.289 30.247)" rx="1.1" ry="1.1"></ellipse><ellipse cx="68.9" cy="27.8" transform="rotate(62.8 68.96 27.844)" rx="1.1" ry="1"></ellipse><path d="M65.7 39.6c.1 0 .3 0 .4-.1.5-.3.7-.9.4-1.4l-.3-.3c-.1-.1-.2-.2-.4-.2-.3-.1-.5-.1-.8.1-.3.1-.4.4-.5.6 0 .1-.1.3 0 .4 0 .1 0 .3.1.4.2.3.6.5 1.1.5zm-2.1-4.9c.4-.2.6-.6.6-1 0-.1 0-.3-.1-.4-.3-.5-.9-.7-1.4-.5-.3.1-.4.4-.5.6-.1.3-.1.5.1.8.2.6.8.8 1.3.5zm-3.4-6.6l-.3.3c-.2.2-.3.5-.2.8 0 .1 0 .3.1.4l.3.3c.2.2.5.3.8.2.1 0 .3 0 .4-.1l.3-.3c.2-.2.3-.5.2-.8 0-.1 0-.3-.1-.4l-.3-.3c-.2-.2-.5-.3-.8-.2-.1 0-.2.1-.4.1zM55.1 32l.3.3c.2.2.5.3.8.2.1 0 .3 0 .4-.1.5-.3.7-.9.4-1.4-.3-.5-.9-.7-1.4-.5-.6.3-.8.9-.5 1.5zm3.7-6.7c.5-.3.7-.9.4-1.4-.3-.5-.9-.7-1.4-.5l-.3.3c-.2.2-.3.5-.2.8 0 .1 0 .3.1.4.2.4.9.7 1.4.4z"></path><ellipse cx="53.6" cy="26.7" transform="rotate(62.8 53.635 26.76)" rx="1.1" ry="1.1"></ellipse><ellipse cx="52.5" cy="30.3" transform="rotate(62.8 52.515 30.324)" rx="1.1" ry="1.1"></ellipse><ellipse cx="57.2" cy="27.9" transform="rotate(62.8 57.186 27.922)" rx="1.1" ry="1"></ellipse><path d="M55.2 24.1c.4-.2.6-.7.5-1.1-.4.4-.9.8-1.3 1.2.3.1.6.1.8-.1zm5 17.6c.2.2.5.3.8.2.1 0 .3 0 .4-.1.5-.3.7-.9.4-1.4-.2-.4-.6-.6-1-.6-.1 0-.3 0-.4.1-.3.1-.4.4-.5.6-.1.3-.1.5.1.8 0 .2.1.3.2.4z"></path><ellipse cx="58.5" cy="36.2" transform="rotate(62.8 58.493 36.21)" rx="1.1" ry="1.1"></ellipse><ellipse cx="57.3" cy="39.8" transform="scale(-1) rotate(62.8 65.168 -93.997)" rx="1.1" ry="1.1"></ellipse><ellipse cx="62" cy="37.4" transform="rotate(62.8 62.044 37.373)" rx="1.1" ry="1"></ellipse><ellipse cx="54.9" cy="35" transform="rotate(62.8 54.943 35.05)" rx="1.1" ry="1.1"></ellipse><ellipse cx="59.6" cy="32.6" transform="rotate(62.8 59.615 32.647)" rx="1.1" ry="1"></ellipse><path d="M49.4 30.1c.4-.2.6-.6.6-1-.2.3-.4.5-.6.8-.1.1-.1.2-.2.3 0 0 .1-.1.2-.1zm-1.1 3.6c.5-.3.7-.9.4-1.4-.2-.3-.5-.5-.8-.5-.4.5-.7 1-1.1 1.5.4.4 1 .6 1.5.4zm5 4l-.3.3c-.2.2-.3.5-.2.8 0 .1 0 .3.1.4.3.5.9.7 1.4.5.5-.3.7-.9.4-1.4-.2-.7-.9-.9-1.4-.6z"></path><ellipse cx="50.2" cy="37.4" transform="scale(-1) rotate(-27.2 -154.766 207.74)" rx="1.1" ry="1.1"></ellipse><path d="M50.7 34.7c.2.2.5.3.8.2.1 0 .3 0 .4-.1.3-.1.4-.4.5-.6.1-.3.1-.5-.1-.8l-.3-.3c-.2-.2-.5-.3-.8-.2-.1 0-.3 0-.4.1l-.3.3c-.3.3-.3.8-.1 1.2.1 0 .2.1.3.2zm.7 33.8c-.5.3-.7.9-.4 1.4 0 .1.1.2.2.2.2-.2.3-.4.5-.6.3-.3.5-.7.8-1-.1 0-.1-.1-.2-.1-.3-.1-.6-.1-.9.1z"></path><ellipse cx="48.4" cy="68.3" transform="scale(-1) rotate(62.8 111.877 -79.293)" rx="1.1" ry="1.1"></ellipse><path d="M52.6 64.9c-.5.3-.7.9-.4 1.4.3.5.9.7 1.4.5.1 0 .1-.1.2-.2.1-.2.2-.3.3-.5.1-.2 0-.5-.1-.7-.3-.5-.9-.8-1.4-.5zm-5.4 5.9c-.1 0-.3 0-.4.1l-.3.3c-.1.1-.2.2-.2.4-.1.3-.1.5.1.8l.3.3c.2.2.5.3.8.2.1 0 .3 0 .4-.1l.3-.3c.2-.2.3-.5.2-.8 0-.1 0-.3-.1-.4-.3-.4-.7-.6-1.1-.5zM32.4 54.4c-.5.3-.7.9-.4 1.4l.3.3c.2.2.5.3.8.2.1 0 .3 0 .4-.1l.3-.3c.2-.2.3-.5.2-.8 0-.1 0-.3-.1-.4-.1-.3-.4-.4-.6-.5-.4 0-.7 0-.9.2z"></path><ellipse cx="29.3" cy="54.2" transform="scale(-1) rotate(62.8 88.777 -48.065)" rx="1.1" ry="1.1"></ellipse><ellipse cx="34" cy="51.8" transform="scale(-1) rotate(62.8 84.842 -55.72)" rx="1.1" ry="1.1"></ellipse><ellipse cx="35.3" cy="60" transform="scale(-1) rotate(62.8 98.423 -57.862)" rx="1.1" ry="1"></ellipse><ellipse cx="34.2" cy="63.6" transform="rotate(62.8 34.195 63.636)" rx="1.1" ry="1.1"></ellipse><ellipse cx="38.9" cy="61.2" transform="rotate(62.8 38.867 61.236)" rx="1.1" ry="1"></ellipse><ellipse cx="31.8" cy="58.9" transform="scale(-1) rotate(62.8 96.519 -52.045)" rx="1.1" ry="1.1"></ellipse><ellipse cx="36.4" cy="56.5" transform="scale(-1) rotate(62.8 92.584 -59.698)" rx="1.1" ry="1.1"></ellipse><path d="M43.3 73.4c-.3-.3-.8-.3-1.2-.1-.5.3-.7.9-.4 1.4.3.5.9.7 1.4.5.5-.3.7-.9.4-1.4 0-.2-.1-.3-.2-.4zm2-5.4c.5-.3.7-.9.4-1.4l-.3-.3c-.3-.3-.8-.3-1.2-.1-.3.1-.4.4-.5.6-.1.3-.1.5.1.8.4.5 1 .7 1.5.4z"></path><ellipse cx="40.2" cy="69.5" transform="rotate(-27.2 40.168 69.514)" rx="1.1" ry="1.1"></ellipse><ellipse cx="39" cy="73.1" transform="scale(-1) rotate(62.8 119.746 -63.982)" rx="1.1" ry="1.1"></ellipse><ellipse cx="43.7" cy="70.7" transform="scale(-1) rotate(62.8 115.812 -71.64)" rx="1.1" ry="1.1"></ellipse><ellipse cx="36.6" cy="68.3" transform="scale(-1) rotate(62.8 112.004 -60.004)" rx="1.1" ry="1.1"></ellipse><ellipse cx="41.3" cy="65.9" transform="scale(-1) rotate(62.8 108.07 -67.658)" rx="1.1" ry="1.1"></ellipse><path d="M38.2 75.6c-.3-.1-.5-.1-.8.1-.3.1-.4.4-.5.6s-.1.5.1.8c.1.3.4.4.6.5.3.1.5.1.8-.1l.3-.3c.1-.1.2-.2.2-.4 0-.1.1-.3 0-.4 0-.1 0-.3-.1-.4-.1-.1-.3-.3-.6-.4zm4.9-14c-.3-.3-.8-.3-1.2-.1-.3.1-.4.4-.5.6 0 .1-.1.3 0 .4 0 .1 0 .3.1.4.1.3.4.4.6.5.1 0 .3.1.4 0 .1 0 .3 0 .4-.1.3-.1.4-.4.5-.6.1-.3.1-.5-.1-.8 0-.1-.1-.3-.2-.3zm-5.9 2.2c-.5.3-.7.9-.4 1.4l.3.3c.2.2.5.3.8.2.1 0 .3 0 .4-.1.5-.3.7-.9.4-1.4-.3-.4-.9-.6-1.5-.4zm3.8 13c-.5.3-.7.9-.4 1.4.2.4.6.6 1 .6l.9-.6c.1-.3.1-.6 0-.9-.4-.5-1-.7-1.5-.5zm4.6-2.4c-.5.3-.7.9-.4 1.4l.1.1c.5-.4 1-.9 1.6-1.3-.4-.3-.8-.4-1.3-.2zM27.7 56.8l-.3.3c-.1.1-.2.2-.2.4-.1.3-.1.5.1.8l.3.3c.2.2.5.3.8.2.1 0 .3 0 .4-.1.3-.1.4-.4.5-.6.1-.3.1-.5-.1-.8-.2-.4-.6-.6-1-.6-.2 0-.4 0-.5.1zM23 59.2c-.3.1-.4.4-.5.6-.1.3-.1.5.1.8.1.3.4.4.6.5.3.1.5.1.8-.1l.3-.3c.3-.3.3-.8.1-1.2-.2-.4-.8-.6-1.4-.3zm2.3-7.1c-.5.3-.7.9-.4 1.4.1.3.4.4.6.5.3.1.5.1.8-.1.5-.3.7-.9.4-1.4-.3-.5-.9-.7-1.4-.4z"></path><ellipse cx="21.1" cy="55.4" transform="scale(-1) rotate(62.8 90.808 -34.592)" rx="1.1" ry="1"></ellipse><ellipse cx="20" cy="59" transform="scale(-1) rotate(62.8 96.646 -32.753)" rx="1.1" ry="1.1"></ellipse><ellipse cx="24.7" cy="56.6" transform="scale(-1) rotate(62.8 92.712 -40.41)" rx="1.1" ry="1.1"></ellipse><path d="M30.1 61.5c-.5.3-.7.9-.4 1.4s.9.7 1.4.5c.5-.3.7-.9.4-1.4-.2-.6-.8-.8-1.4-.5z"></path><ellipse cx="26" cy="64.8" transform="rotate(62.8 25.971 64.876)" rx="1.1" ry="1.1"></ellipse><ellipse cx="24.8" cy="68.4" transform="scale(-1) rotate(62.8 112.131 -40.715)" rx="1.1" ry="1.1"></ellipse><ellipse cx="29.5" cy="66" transform="rotate(62.8 29.522 66.04)" rx="1.1" ry="1"></ellipse><ellipse cx="22.4" cy="63.7" transform="scale(-1) rotate(62.8 104.388 -36.733)" rx="1.1" ry="1.1"></ellipse><ellipse cx="27.1" cy="61.3" transform="scale(-1) rotate(62.8 100.454 -44.39)" rx="1.1" ry="1.1"></ellipse><path d="M20.8 66.3c-.5.3-.7.9-.4 1.4.1.3.4.4.6.5.3.1.5.1.8-.1.5-.3.7-.9.4-1.4-.2-.5-.9-.7-1.4-.4zM33.2 78c-.1 0-.3 0-.4.1-.4.2-.6.6-.6 1 0 .1 0 .3.1.4.3.5.9.7 1.4.5.5-.3.7-.9.4-1.4-.1-.5-.5-.7-.9-.6zm2.8-5.2c.5-.3.7-.9.4-1.4-.3-.5-.9-.7-1.4-.5-.5.3-.7.9-.4 1.4.2.6.9.8 1.4.5z"></path><ellipse cx="30.8" cy="74.3" transform="rotate(-27.2 30.826 74.32)" rx="1.1" ry="1.1"></ellipse><ellipse cx="29.7" cy="77.9" transform="scale(-1) rotate(62.8 127.616 -48.673)" rx="1.1" ry="1.1"></ellipse><ellipse cx="34.4" cy="75.5" transform="scale(-1) rotate(62.8 123.68 -56.326)" rx="1.1" ry="1.1"></ellipse><ellipse cx="27.3" cy="73.1" transform="rotate(-27.2 27.277 73.16)" rx="1.1" ry="1.1"></ellipse><ellipse cx="31.9" cy="70.7" transform="scale(-1) rotate(62.8 115.938 -52.347)" rx="1.1" ry="1.1"></ellipse><path d="M29.5 80.9l-.3-.3c-.1-.1-.2-.2-.4-.2-.3-.1-.5-.1-.8.1l-.3.3c-.2.2-.3.5-.2.8 0 .1 0 .3.1.4.2.4.6.6 1 .6.1 0 .3 0 .4-.1l.3-.3c.1-.1.2-.2.2-.4.2-.3.1-.6 0-.9zm-3-5.2c-.3-.1-.5-.1-.8.1-.5.3-.7.9-.4 1.4s.9.7 1.4.5c.5-.3.7-.9.4-1.4-.2-.3-.4-.5-.6-.6zm7-7.6c.3-.1.4-.4.5-.6s.1-.5-.1-.8c-.1-.3-.4-.4-.6-.5-.3-.1-.5-.1-.8.1-.5.3-.7.9-.4 1.4.2.4.6.6 1 .6.2-.1.3-.1.4-.2zm-5.6.5c-.5.3-.7.9-.4 1.4.3.5.9.7 1.4.5.4-.2.6-.6.6-1 0-.1 0-.3-.1-.4-.3-.5-1-.7-1.5-.5zm3.7 13c-.5.3-.7.9-.4 1.4.1.2.3.4.6.5.4-.1.7-.2 1.1-.3.3-.3.4-.8.1-1.2-.2-.4-.8-.6-1.4-.4z"></path><ellipse cx="36.8" cy="80.2" transform="scale(-1) rotate(62.8 131.424 -60.306)" rx="1.1" ry="1.1"></ellipse><path d="M18.4 61.6c-.3.1-.4.4-.5.6-.1.3-.1.5.1.8.1.3.4.4.6.5s.5.1.8-.1l.3-.3c.1-.1.2-.2.2-.4 0-.1.1-.3 0-.4s0-.3-.1-.4l-.3-.3c-.1-.1-.2-.2-.4-.2s-.5 0-.7.2zm-3-3.7c0 .1 0 .3.1.4.3.5.9.7 1.4.5.4-.2.6-.6.6-1 0-.1 0-.3-.1-.4l-.3-.3c-.2-.2-.5-.3-.8-.2-.1 0-.3 0-.4.1-.3.1-.5.5-.5.9z"></path><ellipse cx="11.8" cy="60.2" transform="rotate(-27.2 11.767 60.222)" rx="1.1" ry="1.1"></ellipse><path d="M10.2 62.8c-.2.1-.3.2-.4.4.3.5.5 1.1.8 1.6.2 0 .4 0 .6-.1.5-.3.7-.9.4-1.4-.3-.5-.9-.7-1.4-.5z"></path><ellipse cx="15.3" cy="61.4" transform="scale(-1) rotate(62.8 100.581 -25.099)" rx="1.1" ry="1.1"></ellipse><path d="M7.7 58.1c-.1 0-.1.1-.1.1.2.6.5 1.2.8 1.9.1 0 .2 0 .3-.1.5-.3.7-.9.4-1.4-.2-.6-.9-.8-1.4-.5z"></path><ellipse cx="12.9" cy="56.6" transform="rotate(62.8 12.89 56.665)" rx="1.1" ry="1"></ellipse><path d="M18.6 73.4c-.4.2-.6.6-.6 1 0 .1 0 .3.1.4l.3.3c.2.2.5.3.8.2.1 0 .3 0 .4-.1.5-.3.7-.9.4-1.4-.3-.4-.9-.6-1.4-.4z"></path><ellipse cx="16.6" cy="69.6" transform="scale(-1) rotate(62.8 114.162 -27.24)" rx="1.1" ry="1"></ellipse><path d="M15 72.3l-.1.1c.4.6.8 1.2 1.2 1.7.4-.3.6-.9.3-1.3-.2-.6-.9-.8-1.4-.5z"></path><ellipse cx="20.2" cy="70.8" transform="rotate(-27.2 20.173 70.833)" rx="1.1" ry="1.1"></ellipse><path d="M12.6 67.5c-.2.1-.3.2-.4.4.3.5.6 1.1.9 1.6.1 0 .3 0 .4-.1.5-.3.7-.9.4-1.4-.2-.5-.8-.7-1.3-.5z"></path><ellipse cx="17.7" cy="66.1" transform="rotate(-27.2 17.745 66.108)" rx="1.1" ry="1.1"></ellipse><path d="M15.1 64.4c-.1-.3-.4-.4-.6-.5-.3-.1-.5-.1-.8.1-.4.2-.6.6-.6 1 0 .1 0 .3.1.4.3.5.9.7 1.4.5.6-.3.8-.9.5-1.5zM21 78.2c-.4.2-.5.5-.6.9.4.4.8.7 1.2 1.1.1 0 .2 0 .3-.1.5-.3.7-.9.4-1.4-.2-.6-.8-.8-1.3-.5z"></path><ellipse cx="25" cy="80.3" transform="scale(-1) rotate(62.8 131.55 -41.015)" rx="1.1" ry="1.1"></ellipse><path d="M18.5 77.1c.1.1.2.3.4.4-.1-.2-.3-.3-.4-.4z"></path><ellipse cx="22.6" cy="75.5" transform="scale(-1) rotate(62.8 123.809 -37.038)" rx="1.1" ry="1.1"></ellipse><path d="M24.2 72.9c.3-.1.4-.4.5-.6.1-.3.1-.5-.1-.8-.1-.3-.3-.5-.6-.5-.1 0-.3-.1-.4 0-.1 0-.3 0-.4.1l-.3.3c-.1.1-.2.2-.2.4-.1.3-.1.5.1.8.3.4.9.6 1.4.3z"></path></g><!----></svg>