<svg data-v-423bf9ae="" xmlns="http://www.w3.org/2000/svg" viewBox="0 0 356 90" class="iconLeft"><!----><!----><!----><g data-v-423bf9ae="" id="2ede7462-acfc-4259-bb4f-ef966db66b3a" fill="black" transform="matrix(4.750594139099121,0,0,4.750594139099121,99.43335723876953,-4.429930686950684)"><path d="M3.44 14.07L3.44 14.07Q2.66 14.07 2.05 13.82L2.05 13.82L2.05 13.82Q1.44 13.57 1.11 13.15L1.11 13.15L1.11 13.15Q0.78 12.73 0.78 12.21L0.78 12.21L0.78 12.08L0.78 12.08Q0.78 11.90 0.97 11.90L0.97 11.90L1.57 11.90L1.57 11.90Q1.65 11.90 1.70 11.94L1.70 11.94L1.70 11.94Q1.75 11.97 1.75 12.03L1.75 12.03L1.75 12.15L1.75 12.15Q1.75 12.61 2.23 12.96L2.23 12.96L2.23 12.96Q2.70 13.30 3.43 13.30L3.43 13.30L3.43 13.30Q4.16 13.30 4.61 12.97L4.61 12.97L4.61 12.97Q5.05 12.64 5.05 12.14L5.05 12.14L5.05 12.14Q5.05 11.79 4.83 11.56L4.83 11.56L4.83 11.56Q4.61 11.34 4.28 11.21L4.28 11.21L4.28 11.21Q3.96 11.09 3.32 10.89L3.32 10.89L3.32 10.89Q2.53 10.67 2.03 10.44L2.03 10.44L2.03 10.44Q1.53 10.22 1.18 9.82L1.18 9.82L1.18 9.82Q0.83 9.42 0.83 8.81L0.83 8.81L0.83 8.81Q0.83 7.91 1.53 7.38L1.53 7.38L1.53 7.38Q2.24 6.85 3.39 6.85L3.39 6.85L3.39 6.85Q4.16 6.85 4.75 7.10L4.75 7.10L4.75 7.10Q5.35 7.35 5.67 7.79L5.67 7.79L5.67 7.79Q5.99 8.23 5.99 8.78L5.99 8.78L5.99 8.78Q5.99 8.96 5.81 8.96L5.81 8.96L5.24 8.96L5.24 8.96Q5.05 8.96 5.05 8.86L5.05 8.86L5.05 8.78L5.05 8.78Q5.05 8.30 4.60 7.98L4.60 7.98L4.60 7.98Q4.14 7.66 3.37 7.66L3.37 7.66L3.37 7.66Q2.66 7.66 2.23 7.95L2.23 7.95L2.23 7.95Q1.79 8.23 1.79 8.74L1.79 8.74L1.79 8.74Q1.79 9.21 2.21 9.46L2.21 9.46L2.21 9.46Q2.62 9.72 3.50 9.97L3.50 9.97L3.50 9.97Q4.31 10.19 4.82 10.40L4.82 10.40L4.82 10.40Q5.32 10.61 5.68 11.02L5.68 11.02L5.68 11.02Q6.05 11.42 6.05 12.07L6.05 12.07L6.05 12.07Q6.05 12.98 5.34 13.52L5.34 13.52L5.34 13.52Q4.63 14.07 3.44 14.07L3.44 14.07ZM8.47 5.64L8.47 5.64Q8.13 5.64 7.92 5.44L7.92 5.44L7.92 5.44Q7.71 5.24 7.71 4.91L7.71 4.91L7.71 4.91Q7.71 4.59 7.92 4.40L7.92 4.40L7.92 4.40Q8.13 4.20 8.47 4.20L8.47 4.20L8.47 4.20Q8.81 4.20 9.02 4.40L9.02 4.40L9.02 4.40Q9.23 4.59 9.23 4.91L9.23 4.91L9.23 4.91Q9.23 5.24 9.02 5.44L9.02 5.44L9.02 5.44Q8.81 5.64 8.47 5.64L8.47 5.64ZM8.16 14L8.16 14Q7.98 14 7.98 13.82L7.98 13.82L7.98 7.10L7.98 7.10Q7.98 6.92 8.16 6.92L8.16 6.92L8.79 6.92L8.79 6.92Q8.97 6.92 8.97 7.10L8.97 7.10L8.97 13.82L8.97 13.82Q8.97 14 8.79 14L8.79 14L8.16 14ZM16.80 8.68L16.80 8.68Q17.00 9.31 17.00 10.46L17.00 10.46L17.00 10.46Q17.00 11.62 16.83 12.19L16.83 12.19L16.83 12.19Q16.58 13.09 15.90 13.60L15.90 13.60L15.90 13.60Q15.23 14.11 14.24 14.11L14.24 14.11L14.24 14.11Q13.69 14.11 13.23 13.89L13.23 13.89L13.23 13.89Q12.77 13.68 12.46 13.27L12.46 13.27L12.46 13.27Q12.43 13.23 12.40 13.24L12.40 13.24L12.40 13.24Q12.38 13.26 12.38 13.30L12.38 13.30L12.38 16.53L12.38 16.53Q12.38 16.72 12.19 16.72L12.19 16.72L11.56 16.72L11.56 16.72Q11.38 16.72 11.38 16.53L11.38 16.53L11.38 7.10L11.38 7.10Q11.38 6.92 11.56 6.92L11.56 6.92L12.19 6.92L12.19 6.92Q12.38 6.92 12.38 7.10L12.38 7.10L12.38 7.63L12.38 7.63Q12.38 7.67 12.40 7.68L12.40 7.68L12.40 7.68Q12.43 7.69 12.46 7.66L12.46 7.66L12.46 7.66Q12.77 7.25 13.22 7.03L13.22 7.03L13.22 7.03Q13.68 6.80 14.24 6.80L14.24 6.80L14.24 6.80Q15.22 6.80 15.88 7.31L15.88 7.31L15.88 7.31Q16.55 7.81 16.80 8.68L16.80 8.68ZM15.68 12.22L15.68 12.22Q15.85 11.91 15.93 11.53L15.93 11.53L15.93 11.53Q16.00 11.14 16.00 10.46L16.00 10.46L16.00 10.46Q16.00 9.80 15.95 9.43L15.95 9.43L15.95 9.43Q15.89 9.06 15.75 8.76L15.75 8.76L15.75 8.76Q15.58 8.26 15.16 7.97L15.16 7.97L15.16 7.97Q14.73 7.67 14.14 7.67L14.14 7.67L14.14 7.67Q13.58 7.67 13.20 7.97L13.20 7.97L13.20 7.97Q12.82 8.26 12.64 8.75L12.64 8.75L12.64 8.75Q12.52 9.03 12.46 9.41L12.46 9.41L12.46 9.41Q12.40 9.79 12.40 10.46L12.40 10.46L12.40 10.46Q12.40 11.13 12.46 11.52L12.46 11.52L12.46 11.52Q12.52 11.90 12.66 12.19L12.66 12.19L12.66 12.19Q12.82 12.67 13.21 12.96L13.21 12.96L13.21 12.96Q13.59 13.24 14.13 13.24L14.13 13.24L14.13 13.24Q14.69 13.24 15.09 12.96L15.09 12.96L15.09 12.96Q15.50 12.68 15.68 12.22L15.68 12.22ZM18.86 14L18.86 14Q18.68 14 18.68 13.82L18.68 13.82L18.68 13.30L18.68 13.30Q18.68 13.17 18.76 13.08L18.76 13.08L18.76 13.08Q19.81 11.83 21.92 9.18L21.92 9.18L21.92 9.18Q23.24 7.52 23.24 6.59L23.24 6.59L23.24 6.59Q23.24 5.85 22.74 5.40L22.74 5.40L22.74 5.40Q22.23 4.96 21.42 4.96L21.42 4.96L21.42 4.96Q20.62 4.96 20.13 5.41L20.13 5.41L20.13 5.41Q19.64 5.87 19.66 6.61L19.66 6.61L19.66 7L19.66 7Q19.66 7.18 19.47 7.18L19.47 7.18L18.83 7.18L18.83 7.18Q18.65 7.18 18.65 7L18.65 7L18.65 6.48L18.65 6.48Q18.68 5.40 19.45 4.75L19.45 4.75L19.45 4.75Q20.23 4.09 21.42 4.09L21.42 4.09L21.42 4.09Q22.26 4.09 22.90 4.41L22.90 4.41L22.90 4.41Q23.55 4.73 23.90 5.30L23.90 5.30L23.90 5.30Q24.25 5.87 24.25 6.58L24.25 6.58L24.25 6.58Q24.25 7.77 22.93 9.45L22.93 9.45L22.93 9.45Q22.30 10.28 20.61 12.35L20.61 12.35L20.03 13.05L20.03 13.05Q20.01 13.08 20.02 13.10L20.02 13.10L20.02 13.10Q20.03 13.13 20.08 13.13L20.08 13.13L24.36 13.13L24.36 13.13Q24.54 13.13 24.54 13.31L24.54 13.31L24.54 13.82L24.54 13.82Q24.54 14 24.36 14L24.36 14L18.86 14ZM33.64 6.82L33.64 6.82Q34.69 6.82 35.30 7.45L35.30 7.45L35.30 7.45Q35.91 8.08 35.91 9.17L35.91 9.17L35.91 13.82L35.91 13.82Q35.91 14 35.73 14L35.73 14L35.11 14L35.11 14Q34.93 14 34.93 13.82L34.93 13.82L34.93 9.37L34.93 9.37Q34.93 8.60 34.49 8.14L34.49 8.14L34.49 8.14Q34.05 7.69 33.33 7.69L33.33 7.69L33.33 7.69Q32.59 7.69 32.14 8.13L32.14 8.13L32.14 8.13Q31.68 8.58 31.68 9.34L31.68 9.34L31.68 13.82L31.68 13.82Q31.68 14 31.50 14L31.50 14L30.87 14L30.87 14Q30.69 14 30.69 13.82L30.69 13.82L30.69 9.37L30.69 9.37Q30.69 8.60 30.25 8.14L30.25 8.14L30.25 8.14Q29.82 7.69 29.09 7.69L29.09 7.69L29.09 7.69Q28.35 7.69 27.91 8.13L27.91 8.13L27.91 8.13Q27.47 8.58 27.47 9.34L27.47 9.34L27.47 13.82L27.47 13.82Q27.47 14 27.29 14L27.29 14L26.66 14L26.66 14Q26.47 14 26.47 13.82L26.47 13.82L26.47 7.10L26.47 7.10Q26.47 6.92 26.66 6.92L26.66 6.92L27.29 6.92L27.29 6.92Q27.47 6.92 27.47 7.10L27.47 7.10L27.47 7.59L27.47 7.59Q27.47 7.63 27.50 7.64L27.50 7.64L27.50 7.64Q27.52 7.66 27.55 7.62L27.55 7.62L27.55 7.62Q27.86 7.21 28.34 7.01L28.34 7.01L28.34 7.01Q28.81 6.82 29.40 6.82L29.40 6.82L29.40 6.82Q30.11 6.82 30.63 7.11L30.63 7.11L30.63 7.11Q31.15 7.41 31.42 7.94L31.42 7.94L31.42 7.94Q31.46 8.02 31.50 7.95L31.50 7.95L31.50 7.95Q31.81 7.38 32.37 7.10L32.37 7.10L32.37 7.10Q32.93 6.82 33.64 6.82L33.64 6.82ZM42.41 7.10L42.41 7.10Q42.41 6.92 42.59 6.92L42.59 6.92L43.22 6.92L43.22 6.92Q43.40 6.92 43.40 7.10L43.40 7.10L43.40 16.53L43.40 16.53Q43.40 16.72 43.22 16.72L43.22 16.72L42.59 16.72L42.59 16.72Q42.41 16.72 42.41 16.53L42.41 16.53L42.41 13.30L42.41 13.30Q42.41 13.26 42.38 13.24L42.38 13.24L42.38 13.24Q42.35 13.23 42.32 13.27L42.32 13.27L42.32 13.27Q42.01 13.68 41.55 13.89L41.55 13.89L41.55 13.89Q41.09 14.11 40.54 14.11L40.54 14.11L40.54 14.11Q39.55 14.11 38.88 13.60L38.88 13.60L38.88 13.60Q38.21 13.09 37.95 12.19L37.95 12.19L37.95 12.19Q37.79 11.62 37.79 10.46L37.79 10.46L37.79 10.46Q37.79 9.31 37.98 8.68L37.98 8.68L37.98 8.68Q38.23 7.81 38.90 7.31L38.90 7.31L38.90 7.31Q39.56 6.80 40.54 6.80L40.54 6.80L40.54 6.80Q41.10 6.80 41.56 7.03L41.56 7.03L41.56 7.03Q42.01 7.25 42.32 7.66L42.32 7.66L42.32 7.66Q42.35 7.69 42.38 7.68L42.38 7.68L42.38 7.68Q42.41 7.67 42.41 7.63L42.41 7.63L42.41 7.10ZM42.13 12.19L42.13 12.19Q42.27 11.90 42.32 11.52L42.32 11.52L42.32 11.52Q42.38 11.13 42.38 10.46L42.38 10.46L42.38 10.46Q42.38 9.79 42.32 9.41L42.32 9.41L42.32 9.41Q42.27 9.03 42.14 8.75L42.14 8.75L42.14 8.75Q41.96 8.26 41.58 7.97L41.58 7.97L41.58 7.97Q41.20 7.67 40.64 7.67L40.64 7.67L40.64 7.67Q40.05 7.67 39.63 7.97L39.63 7.97L39.63 7.97Q39.20 8.26 39.03 8.76L39.03 8.76L39.03 8.76Q38.89 9.06 38.84 9.43L38.84 9.43L38.84 9.43Q38.78 9.80 38.78 10.46L38.78 10.46L38.78 10.46Q38.78 11.14 38.86 11.53L38.86 11.53L38.86 11.53Q38.93 11.91 39.10 12.22L39.10 12.22L39.10 12.22Q39.28 12.68 39.69 12.96L39.69 12.96L39.69 12.96Q40.10 13.24 40.66 13.24L40.66 13.24L40.66 13.24Q41.19 13.24 41.57 12.96L41.57 12.96L41.57 12.96Q41.96 12.67 42.13 12.19L42.13 12.19ZM48.90 7.56L48.90 7.56Q48.90 7.74 48.72 7.74L48.72 7.74L47.19 7.74L47.19 7.74Q47.12 7.74 47.12 7.81L47.12 7.81L47.12 11.90L47.12 11.90Q47.12 12.57 47.42 12.85L47.42 12.85L47.42 12.85Q47.73 13.12 48.37 13.12L48.37 13.12L48.68 13.12L48.68 13.12Q48.86 13.12 48.86 13.30L48.86 13.30L48.86 13.79L48.86 13.79Q48.86 13.97 48.68 13.99L48.68 13.99L48.20 13.99L48.20 13.99Q47.19 13.99 46.68 13.61L46.68 13.61L46.68 13.61Q46.16 13.23 46.16 12.21L46.16 12.21L46.16 7.81L46.16 7.81Q46.16 7.74 46.09 7.74L46.09 7.74L45.29 7.74L45.29 7.74Q45.11 7.74 45.11 7.56L45.11 7.56L45.11 7.10L45.11 7.10Q45.11 6.92 45.29 6.92L45.29 6.92L46.09 6.92L46.09 6.92Q46.16 6.92 46.16 6.85L46.16 6.85L46.16 5.28L46.16 5.28Q46.16 5.10 46.34 5.10L46.34 5.10L46.94 5.10L46.94 5.10Q47.12 5.10 47.12 5.28L47.12 5.28L47.12 6.85L47.12 6.85Q47.12 6.92 47.19 6.92L47.19 6.92L48.72 6.92L48.72 6.92Q48.90 6.92 48.90 7.10L48.90 7.10L48.90 7.56ZM54.00 7.56L54.00 7.56Q54.00 7.74 53.82 7.74L53.82 7.74L52.29 7.74L52.29 7.74Q52.22 7.74 52.22 7.81L52.22 7.81L52.22 11.90L52.22 11.90Q52.22 12.57 52.52 12.85L52.52 12.85L52.52 12.85Q52.82 13.12 53.47 13.12L53.47 13.12L53.77 13.12L53.77 13.12Q53.96 13.12 53.96 13.30L53.96 13.30L53.96 13.79L53.96 13.79Q53.96 13.97 53.77 13.99L53.77 13.99L53.30 13.99L53.30 13.99Q52.29 13.99 51.77 13.61L51.77 13.61L51.77 13.61Q51.25 13.23 51.25 12.21L51.25 12.21L51.25 7.81L51.25 7.81Q51.25 7.74 51.18 7.74L51.18 7.74L50.39 7.74L50.39 7.74Q50.20 7.74 50.20 7.56L50.20 7.56L50.20 7.10L50.20 7.10Q50.20 6.92 50.39 6.92L50.39 6.92L51.18 6.92L51.18 6.92Q51.25 6.92 51.25 6.85L51.25 6.85L51.25 5.28L51.25 5.28Q51.25 5.10 51.44 5.10L51.44 5.10L52.04 5.10L52.04 5.10Q52.22 5.10 52.22 5.28L52.22 5.28L52.22 6.85L52.22 6.85Q52.22 6.92 52.29 6.92L52.29 6.92L53.82 6.92L53.82 6.92Q54.00 6.92 54.00 7.10L54.00 7.10L54.00 7.56Z"></path></g><!----><g data-v-423bf9ae="" id="14b6bca7-5530-488a-8eae-9b245f3ef27d" transform="matrix(1.0008268356323242,0,0,1.0008268356323242,-8.576729774475098,-5.00417423248291)" stroke="none" fill="black"><path d="M90.1 75.1l-.5-1c-1.4-3.3-18.6-8.3-20-8.4l-1.1.1c-2.1.4-4.4 2.3-8.9 6.2-.9.8-2.1 1-3.2.4-5.9-3.3-13.1-9.9-16.7-13.9-3.9-4.3-8.6-11.4-10.8-17.1-.4-1.1 0-2.3.8-3.1 5.1-4.6 7.3-6.8 7.5-9.2.1-1.4-2.9-19.1-6-20.8l-.9-.6c-2-1.3-5-3.2-8.3-2.5-.8.2-1.6.5-2.3.9-2.2 1.4-7.7 5.2-10.2 10.1C8 19.3 7.3 47.4 28.3 71.1c20.8 23.5 46.5 24.5 50.3 23.7h.1l.3-.1c5.2-1.9 9.6-6.8 11.3-8.9 3.1-3.7 1-8.2-.2-10.7z"></path></g><!----></svg>