<svg data-v-fde0c5aa="" xmlns="http://www.w3.org/2000/svg" viewBox="0 0 300 300" class="icon"><!----><defs data-v-fde0c5aa=""><!----></defs><rect data-v-fde0c5aa="" fill="transparent" x="0" y="0" width="300px" height="300px" class="logo-background-square"></rect><!----><defs data-v-fde0c5aa=""><linearGradient data-v-fde0c5aa="" gradientTransform="rotate(25)" id="b05bdb2d-5008-4a75-b625-c4796283997f" x1="0%" y1="0%" x2="100%" y2="0%"><stop data-v-fde0c5aa="" offset="0%" stop-color="#007DE8" stop-opacity="1"></stop><stop data-v-fde0c5aa="" offset="100%" stop-color="#A1C3DB" stop-opacity="1"></stop></linearGradient></defs><g data-v-fde0c5aa="" id="9759683b-0933-4695-819f-2d2e9176a605" fill="url(#b05bdb2d-5008-4a75-b625-c4796283997f)" stroke="none" transform="matrix(2.4464657306671143,0,0,2.4464657306671143,26.744054587131604,27.646148203565126)"><path d="M90.1 75.1l-.5-1c-1.4-3.3-18.6-8.3-20-8.4l-1.1.1c-2.1.4-4.4 2.3-8.9 6.2-.9.8-2.1 1-3.2.4-5.9-3.3-13.1-9.9-16.7-13.9-3.9-4.3-8.6-11.4-10.8-17.1-.4-1.1 0-2.3.8-3.1 5.1-4.6 7.3-6.8 7.5-9.2.1-1.4-2.9-19.1-6-20.8l-.9-.6c-2-1.3-5-3.2-8.3-2.5-.8.2-1.6.5-2.3.9-2.2 1.4-7.7 5.2-10.2 10.1C8 19.3 7.3 47.4 28.3 71.1c20.8 23.5 46.5 24.5 50.3 23.7h.1l.3-.1c5.2-1.9 9.6-6.8 11.3-8.9 3.1-3.7 1-8.2-.2-10.7z"></path></g><!----></svg>