<svg data-v-423bf9ae="" xmlns="http://www.w3.org/2000/svg" viewBox="0 0 55.425888121340485 60" class="icon"><!----><!----><!----><!----><g data-v-423bf9ae="" id="c61983d8-1752-4f64-91c4-554e9f4f0bd8" transform="matrix(0.6672179102897644,0,0,0.6672179102897644,-5.902312755584717,-3.369231700897217)" stroke="none" fill="black"><path d="M90.1 75.1l-.5-1c-1.4-3.3-18.6-8.3-20-8.4l-1.1.1c-2.1.4-4.4 2.3-8.9 6.2-.9.8-2.1 1-3.2.4-5.9-3.3-13.1-9.9-16.7-13.9-3.9-4.3-8.6-11.4-10.8-17.1-.4-1.1 0-2.3.8-3.1 5.1-4.6 7.3-6.8 7.5-9.2.1-1.4-2.9-19.1-6-20.8l-.9-.6c-2-1.3-5-3.2-8.3-2.5-.8.2-1.6.5-2.3.9-2.2 1.4-7.7 5.2-10.2 10.1C8 19.3 7.3 47.4 28.3 71.1c20.8 23.5 46.5 24.5 50.3 23.7h.1l.3-.1c5.2-1.9 9.6-6.8 11.3-8.9 3.1-3.7 1-8.2-.2-10.7z"></path></g><!----></svg>